<svg id="svg" version="1.1" xmlns="http://www.w3.org/2000/svg" xmlns:xlink="http://www.w3.org/1999/xlink" width="20" height="20" viewBox="0, 0, 400,400"><g id="svgg"><path id="path0" d="M150.481 79.442 C 149.756 79.758,147.266 80.209,144.948 80.442 C 142.269 80.712,140.272 81.132,139.467 81.595 C 138.770 81.997,137.210 82.455,136.000 82.613 C 134.790 82.772,133.382 83.229,132.872 83.630 C 132.361 84.031,131.157 84.477,130.196 84.622 C 129.235 84.766,128.149 85.215,127.783 85.619 C 127.417 86.024,126.576 86.473,125.916 86.619 C 125.255 86.764,124.078 87.314,123.301 87.841 C 122.524 88.369,121.652 88.800,121.362 88.800 C 121.073 88.800,120.386 89.250,119.836 89.800 C 119.286 90.350,118.475 90.800,118.032 90.800 C 117.590 90.800,117.035 91.160,116.800 91.600 C 116.565 92.040,116.119 92.400,115.811 92.400 C 115.502 92.400,114.658 92.940,113.936 93.600 C 113.213 94.260,112.424 94.800,112.183 94.800 C 111.942 94.800,111.353 95.250,110.875 95.800 C 110.397 96.350,109.746 96.800,109.430 96.800 C 109.113 96.800,108.740 97.160,108.600 97.600 C 108.460 98.040,108.183 98.400,107.984 98.400 C 107.511 98.400,100.400 105.511,100.400 105.984 C 100.400 106.183,100.040 106.460,99.600 106.600 C 99.160 106.740,98.800 107.113,98.800 107.430 C 98.800 107.746,98.350 108.397,97.800 108.875 C 97.250 109.353,96.800 109.942,96.800 110.183 C 96.800 110.424,96.260 111.213,95.600 111.936 C 94.940 112.658,94.400 113.502,94.400 113.811 C 94.400 114.119,94.040 114.565,93.600 114.800 C 93.160 115.035,92.800 115.590,92.800 116.032 C 92.800 116.475,92.350 117.286,91.800 117.836 C 91.250 118.386,90.800 119.073,90.800 119.362 C 90.800 119.652,90.369 120.524,89.841 121.301 C 89.314 122.078,88.764 123.255,88.619 123.916 C 88.473 124.576,88.024 125.417,87.619 125.783 C 87.215 126.149,86.766 127.235,86.622 128.196 C 86.477 129.157,86.031 130.361,85.630 130.872 C 85.229 131.382,84.772 132.790,84.613 134.000 C 84.455 135.210,83.997 136.770,83.595 137.467 C 83.131 138.273,82.711 140.271,82.441 142.962 C 82.206 145.287,81.742 147.844,81.408 148.644 C 80.490 150.839,80.487 249.153,81.404 251.348 C 81.736 252.143,82.195 254.640,82.424 256.897 C 82.658 259.212,83.162 261.697,83.581 262.600 C 83.989 263.480,84.447 265.093,84.598 266.184 C 84.750 267.275,85.208 268.593,85.617 269.112 C 86.025 269.631,86.477 270.843,86.622 271.804 C 86.766 272.765,87.228 273.863,87.648 274.243 C 88.068 274.624,88.521 275.613,88.653 276.443 C 88.786 277.272,89.133 278.042,89.425 278.154 C 89.717 278.266,90.174 279.087,90.441 279.979 C 90.708 280.870,91.088 281.600,91.286 281.600 C 91.483 281.600,92.005 282.365,92.445 283.300 C 92.885 284.235,93.781 285.720,94.436 286.600 C 95.091 287.480,96.047 288.833,96.559 289.606 C 97.072 290.379,97.786 291.256,98.146 291.555 C 98.506 291.854,98.800 292.238,98.800 292.408 C 98.800 292.579,99.700 293.638,100.800 294.761 C 101.900 295.885,102.800 296.983,102.800 297.202 C 102.800 297.421,103.074 297.600,103.409 297.600 C 103.743 297.600,104.222 298.050,104.473 298.600 C 104.723 299.150,105.083 299.600,105.273 299.600 C 105.462 299.600,106.503 300.455,107.585 301.500 C 108.667 302.545,110.210 303.850,111.012 304.400 C 111.815 304.950,113.064 305.895,113.788 306.500 C 114.513 307.105,115.285 307.600,115.504 307.600 C 115.723 307.600,116.135 307.880,116.419 308.223 C 116.704 308.566,117.573 309.112,118.352 309.438 C 119.131 309.763,120.097 310.383,120.500 310.815 C 120.902 311.247,121.549 311.600,121.938 311.600 C 122.327 311.600,123.255 312.050,124.000 312.600 C 124.745 313.150,125.656 313.600,126.024 313.600 C 126.391 313.600,127.142 313.954,127.691 314.386 C 128.241 314.818,129.567 315.369,130.639 315.609 C 131.710 315.849,132.881 316.311,133.240 316.636 C 133.599 316.961,135.042 317.411,136.447 317.636 C 137.851 317.861,139.400 318.306,139.889 318.624 C 140.377 318.943,142.512 319.384,144.632 319.603 C 146.753 319.823,149.503 320.317,150.744 320.702 C 154.213 321.776,246.312 321.778,249.400 320.704 C 250.500 320.322,253.160 319.828,255.311 319.606 C 257.463 319.385,259.623 318.943,260.111 318.624 C 260.600 318.306,262.149 317.861,263.553 317.636 C 264.958 317.411,266.401 316.961,266.760 316.636 C 267.119 316.311,268.290 315.849,269.361 315.609 C 270.433 315.369,271.759 314.818,272.309 314.386 C 272.858 313.954,273.609 313.600,273.976 313.600 C 274.344 313.600,275.255 313.150,276.000 312.600 C 276.745 312.050,277.656 311.600,278.023 311.600 C 278.390 311.600,279.369 311.060,280.200 310.400 C 281.031 309.740,281.927 309.200,282.193 309.200 C 282.459 309.200,283.002 308.840,283.400 308.400 C 283.798 307.960,284.277 307.600,284.464 307.600 C 284.985 307.600,290.367 303.456,292.494 301.416 C 293.536 300.417,294.487 299.600,294.608 299.600 C 294.895 299.600,297.600 296.892,297.600 296.605 C 297.600 296.483,298.455 295.497,299.500 294.415 C 300.545 293.333,301.850 291.790,302.400 290.988 C 302.950 290.185,303.895 288.936,304.500 288.212 C 305.105 287.487,305.600 286.721,305.600 286.509 C 305.600 286.297,305.960 285.798,306.400 285.400 C 306.840 285.002,307.200 284.459,307.200 284.193 C 307.200 283.927,307.740 283.031,308.400 282.200 C 309.060 281.369,309.600 280.390,309.600 280.023 C 309.600 279.656,310.050 278.745,310.600 278.000 C 311.150 277.255,311.600 276.344,311.600 275.976 C 311.600 275.609,311.954 274.858,312.386 274.309 C 312.818 273.759,313.369 272.433,313.609 271.361 C 313.849 270.290,314.311 269.119,314.636 268.760 C 314.961 268.401,315.411 266.958,315.636 265.553 C 315.861 264.149,316.306 262.600,316.624 262.111 C 316.943 261.623,317.385 259.463,317.606 257.311 C 317.828 255.160,318.322 252.500,318.704 251.400 C 319.779 248.311,319.776 152.215,318.702 148.744 C 318.317 147.503,317.823 144.753,317.603 142.632 C 317.384 140.512,316.943 138.377,316.624 137.889 C 316.306 137.400,315.861 135.851,315.636 134.447 C 315.411 133.042,314.961 131.599,314.636 131.240 C 314.311 130.881,313.849 129.710,313.609 128.639 C 313.369 127.567,312.818 126.241,312.386 125.691 C 311.954 125.142,311.600 124.391,311.600 124.024 C 311.600 123.656,311.150 122.745,310.600 122.000 C 310.050 121.255,309.600 120.327,309.600 119.938 C 309.600 119.549,309.247 118.902,308.815 118.500 C 308.383 118.097,307.763 117.131,307.438 116.352 C 307.112 115.573,306.566 114.704,306.223 114.419 C 305.880 114.135,305.600 113.723,305.600 113.504 C 305.600 113.285,305.105 112.513,304.500 111.788 C 303.895 111.064,302.950 109.813,302.400 109.008 C 301.850 108.204,300.545 106.682,299.500 105.626 C 298.455 104.571,297.600 103.532,297.600 103.318 C 297.600 103.104,297.150 102.723,296.600 102.473 C 296.050 102.222,295.600 101.743,295.600 101.409 C 295.600 101.074,295.421 100.800,295.202 100.800 C 294.983 100.800,293.885 99.900,292.761 98.800 C 291.638 97.700,290.626 96.800,290.512 96.800 C 290.399 96.800,289.698 96.305,288.955 95.700 C 288.213 95.095,286.994 94.105,286.248 93.500 C 285.501 92.895,284.700 92.400,284.468 92.400 C 284.235 92.400,283.810 92.069,283.523 91.665 C 283.235 91.260,282.500 90.806,281.890 90.654 C 281.279 90.503,280.445 90.045,280.036 89.636 C 279.627 89.227,278.629 88.674,277.818 88.406 C 277.007 88.138,276.255 87.689,276.147 87.407 C 276.039 87.125,275.272 86.786,274.443 86.653 C 273.613 86.521,272.624 86.068,272.243 85.648 C 271.863 85.228,270.765 84.766,269.804 84.622 C 268.843 84.477,267.631 84.025,267.112 83.617 C 266.593 83.208,265.275 82.750,264.184 82.598 C 263.093 82.447,261.480 81.989,260.600 81.581 C 259.697 81.162,257.212 80.658,254.897 80.424 C 252.640 80.195,250.143 79.736,249.348 79.404 C 247.221 78.515,152.519 78.551,150.481 79.442 M254.400 86.492 C 255.170 86.873,257.029 87.356,258.531 87.567 C 260.033 87.777,261.671 88.217,262.172 88.545 C 262.673 88.873,263.784 89.265,264.642 89.416 C 265.499 89.566,266.952 90.119,267.871 90.645 C 268.790 91.170,269.881 91.600,270.296 91.600 C 270.710 91.600,271.428 91.953,271.890 92.384 C 272.353 92.815,273.242 93.292,273.866 93.445 C 274.490 93.597,275.509 94.144,276.131 94.661 C 276.753 95.177,277.463 95.600,277.709 95.600 C 278.200 95.600,280.685 97.201,282.656 98.788 C 283.347 99.345,284.396 100.160,284.987 100.600 C 288.776 103.420,295.599 110.158,296.634 112.100 C 296.957 112.705,297.378 113.200,297.571 113.200 C 297.763 113.200,298.344 113.861,298.860 114.670 C 299.377 115.478,300.294 116.873,300.899 117.770 C 301.503 118.666,302.258 119.954,302.576 120.632 C 302.894 121.309,303.423 122.087,303.751 122.359 C 304.080 122.632,304.468 123.401,304.615 124.068 C 304.762 124.736,305.213 125.613,305.618 126.018 C 306.024 126.424,306.482 127.432,306.637 128.258 C 306.792 129.085,307.234 130.100,307.619 130.513 C 308.004 130.926,308.444 132.097,308.596 133.116 C 308.749 134.135,309.199 135.382,309.597 135.887 C 310.050 136.463,310.427 137.881,310.609 139.692 C 310.769 141.280,311.155 142.970,311.467 143.447 C 313.439 146.455,313.434 253.552,311.462 256.562 C 311.152 257.034,310.769 258.720,310.609 260.308 C 310.427 262.119,310.050 263.537,309.597 264.113 C 309.199 264.618,308.747 265.882,308.591 266.921 C 308.435 267.959,307.992 269.212,307.606 269.705 C 307.220 270.197,306.772 271.203,306.611 271.941 C 306.450 272.678,306.003 273.597,305.617 273.983 C 305.231 274.369,304.786 275.205,304.627 275.842 C 304.273 277.257,299.733 284.368,297.700 286.689 C 297.205 287.254,296.800 287.872,296.800 288.061 C 296.800 288.665,286.449 298.800,285.832 298.800 C 285.506 298.800,285.095 299.058,284.919 299.373 C 284.505 300.112,282.164 301.823,280.500 302.602 C 279.785 302.937,279.200 303.366,279.200 303.557 C 279.200 303.747,278.623 304.142,277.917 304.434 C 277.212 304.727,276.322 305.278,275.939 305.661 C 275.557 306.043,274.617 306.473,273.850 306.617 C 273.083 306.761,272.362 307.121,272.249 307.417 C 272.135 307.713,271.268 308.179,270.321 308.453 C 269.375 308.727,268.197 309.257,267.705 309.630 C 267.212 310.003,265.959 310.435,264.921 310.591 C 263.882 310.747,262.618 311.199,262.113 311.597 C 261.537 312.050,260.119 312.427,258.308 312.609 C 256.720 312.769,255.034 313.152,254.562 313.462 C 251.558 315.430,148.450 315.435,145.447 313.467 C 144.970 313.155,143.280 312.769,141.692 312.609 C 139.881 312.427,138.463 312.050,137.887 311.597 C 137.382 311.199,136.135 310.749,135.116 310.596 C 134.097 310.444,132.926 310.004,132.513 309.619 C 132.100 309.234,131.085 308.792,130.258 308.637 C 129.432 308.482,128.424 308.024,128.018 307.618 C 127.613 307.213,126.742 306.763,126.082 306.618 C 125.423 306.473,124.566 306.005,124.179 305.577 C 123.793 305.150,123.248 304.800,122.969 304.800 C 122.690 304.800,121.953 304.388,121.331 303.884 C 120.709 303.381,119.700 302.752,119.089 302.488 C 118.478 302.223,117.873 301.735,117.746 301.403 C 117.619 301.072,117.270 300.800,116.971 300.800 C 116.672 300.800,115.882 300.305,115.216 299.700 C 114.549 299.095,113.348 298.060,112.546 297.400 C 109.459 294.858,105.341 290.534,102.600 286.957 C 102.160 286.383,101.344 285.347,100.787 284.656 C 99.436 282.982,97.600 280.105,97.600 279.663 C 97.600 279.467,97.234 278.842,96.786 278.273 C 96.338 277.703,95.765 276.644,95.513 275.919 C 95.260 275.193,94.817 274.362,94.528 274.072 C 94.238 273.782,93.885 273.062,93.744 272.472 C 93.602 271.882,93.082 270.680,92.588 269.800 C 92.094 268.920,91.566 267.499,91.416 266.642 C 91.265 265.784,90.869 264.667,90.535 264.158 C 90.202 263.649,89.775 262.010,89.586 260.516 C 89.398 259.022,88.918 257.170,88.522 256.400 C 87.836 255.071,87.800 252.239,87.800 200.400 L 87.800 145.800 88.700 143.298 C 89.195 141.923,89.600 140.116,89.600 139.283 C 89.600 138.450,89.958 137.066,90.396 136.207 C 90.834 135.348,91.301 134.005,91.434 133.222 C 91.566 132.440,92.004 131.331,92.406 130.758 C 92.809 130.185,93.333 128.991,93.572 128.105 C 93.810 127.218,94.263 126.280,94.577 126.019 C 94.891 125.758,95.270 124.972,95.417 124.272 C 95.565 123.573,96.004 122.640,96.391 122.200 C 96.779 121.760,97.345 120.941,97.648 120.380 C 98.740 118.361,99.814 116.678,100.600 115.757 C 101.040 115.241,101.850 114.162,102.400 113.359 C 104.651 110.072,112.072 102.651,115.359 100.400 C 116.162 99.850,117.241 99.040,117.757 98.600 C 118.678 97.814,120.361 96.740,122.380 95.648 C 122.941 95.345,123.760 94.779,124.200 94.391 C 124.640 94.004,125.573 93.565,126.272 93.417 C 126.972 93.270,127.758 92.891,128.019 92.577 C 128.280 92.263,129.218 91.810,130.105 91.572 C 130.991 91.333,132.185 90.809,132.758 90.406 C 133.331 90.004,134.440 89.566,135.222 89.434 C 136.005 89.301,137.348 88.834,138.207 88.396 C 139.066 87.958,140.450 87.600,141.283 87.600 C 142.116 87.600,143.833 87.252,145.098 86.827 C 146.364 86.402,147.760 85.971,148.200 85.869 C 150.965 85.230,253.059 85.829,254.400 86.492 M197.700 127.856 L 196.800 128.828 196.800 162.014 C 196.800 194.667,196.787 195.213,196.000 196.000 C 195.213 196.787,194.667 196.800,162.018 196.800 L 128.836 196.800 127.818 197.818 C 126.354 199.282,126.468 201.102,128.106 202.400 L 129.368 203.400 162.584 203.505 C 193.145 203.601,195.840 203.663,196.300 204.281 C 196.691 204.806,196.800 212.206,196.800 238.096 L 196.800 271.238 197.900 272.207 C 199.373 273.503,200.893 273.466,202.282 272.100 L 203.400 271.000 203.509 237.742 C 203.596 211.003,203.720 204.398,204.139 204.051 C 204.501 203.750,214.789 203.585,237.830 203.509 L 271.000 203.400 272.100 202.282 C 273.516 200.842,273.547 199.183,272.182 197.818 L 271.164 196.800 238.058 196.800 C 212.199 196.800,204.806 196.691,204.281 196.300 C 203.663 195.840,203.601 193.145,203.505 162.584 L 203.400 129.368 202.400 128.106 C 201.119 126.489,199.067 126.380,197.700 127.856 " stroke="none" fill="#070707" fill-rule="evenodd"></path><path id="path1" d="M0.000 200.000 L 0.000 400.000 200.000 400.000 L 400.000 400.000 400.000 200.000 L 400.000 0.000 200.000 0.000 L 0.000 0.000 0.000 200.000 M249.016 77.568 C 252.673 77.780,255.045 78.104,255.816 78.499 C 256.467 78.833,258.409 79.292,260.132 79.520 C 261.855 79.748,263.565 80.203,263.932 80.531 C 264.299 80.860,265.457 81.256,266.505 81.411 C 267.552 81.565,268.822 82.017,269.326 82.413 C 269.830 82.810,270.910 83.259,271.725 83.412 C 272.540 83.565,273.625 84.019,274.135 84.420 C 274.645 84.822,275.589 85.275,276.232 85.428 C 276.874 85.580,277.760 86.021,278.200 86.407 C 278.640 86.792,279.450 87.243,280.000 87.409 C 280.550 87.574,281.509 88.135,282.131 88.655 C 282.753 89.175,283.516 89.600,283.827 89.600 C 284.139 89.600,284.618 89.960,284.893 90.400 C 285.168 90.840,285.613 91.200,285.882 91.200 C 286.152 91.200,286.987 91.740,287.739 92.400 C 288.491 93.060,289.243 93.600,289.411 93.600 C 289.579 93.600,290.095 93.963,290.558 94.407 C 293.150 96.889,295.703 99.200,295.854 99.200 C 296.113 99.200,298.800 101.938,298.800 102.202 C 298.800 102.328,299.655 103.316,300.700 104.398 C 303.640 107.442,304.800 108.800,304.800 109.198 C 304.800 109.399,305.250 110.014,305.800 110.564 C 306.350 111.114,306.800 111.835,306.800 112.168 C 306.800 112.500,307.139 112.953,307.554 113.175 C 307.969 113.397,308.421 114.027,308.558 114.575 C 308.696 115.123,309.256 116.020,309.804 116.568 C 310.352 117.115,310.800 117.979,310.800 118.486 C 310.800 118.993,311.158 119.631,311.595 119.904 C 312.073 120.202,312.493 121.040,312.646 122.000 C 312.787 122.880,313.055 123.600,313.241 123.600 C 313.738 123.600,314.800 125.817,314.800 126.854 C 314.800 127.346,315.159 128.130,315.597 128.597 C 316.046 129.075,316.511 130.308,316.663 131.423 C 316.810 132.510,317.256 133.850,317.653 134.400 C 318.096 135.013,318.474 136.485,318.629 138.200 C 318.769 139.741,319.269 141.809,319.742 142.800 L 320.600 144.600 320.600 200.000 L 320.600 255.400 319.743 257.200 C 319.260 258.214,318.782 260.220,318.649 261.793 C 318.498 263.574,318.144 264.951,317.672 265.593 C 317.265 266.147,316.810 267.490,316.663 268.577 C 316.515 269.665,316.059 270.925,315.650 271.377 C 315.241 271.830,314.799 272.901,314.669 273.757 C 314.538 274.614,314.065 275.706,313.616 276.183 C 313.167 276.661,312.800 277.431,312.800 277.895 C 312.800 278.359,312.350 279.273,311.800 279.927 C 311.250 280.581,310.800 281.391,310.800 281.727 C 310.800 282.063,310.355 282.867,309.811 283.514 C 309.267 284.160,308.642 285.164,308.421 285.744 C 308.200 286.325,307.745 286.800,307.410 286.800 C 307.056 286.800,306.800 287.154,306.800 287.645 C 306.800 288.435,305.830 289.873,303.700 292.237 C 303.205 292.787,302.800 293.404,302.800 293.609 C 302.800 293.814,302.357 294.272,301.816 294.627 C 301.274 294.981,300.722 295.615,300.589 296.036 C 300.455 296.456,300.088 296.800,299.773 296.800 C 299.458 296.800,299.200 296.965,299.200 297.166 C 299.200 297.710,296.226 300.800,295.704 300.800 C 295.456 300.800,295.140 301.160,295.000 301.599 C 294.861 302.039,294.326 302.504,293.811 302.633 C 293.297 302.762,292.786 303.212,292.676 303.632 C 292.566 304.052,292.171 304.513,291.798 304.656 C 291.425 304.799,290.697 305.295,290.179 305.758 C 287.993 307.714,286.450 308.800,285.859 308.800 C 285.512 308.800,285.035 309.160,284.800 309.600 C 284.565 310.040,284.133 310.400,283.841 310.400 C 283.549 310.400,282.631 310.940,281.800 311.600 C 280.969 312.260,279.964 312.800,279.565 312.800 C 279.166 312.800,278.696 313.044,278.520 313.342 C 278.111 314.034,276.657 314.800,275.752 314.800 C 275.367 314.800,274.661 315.167,274.183 315.616 C 273.706 316.065,272.614 316.538,271.757 316.669 C 270.901 316.799,269.830 317.241,269.377 317.650 C 268.925 318.059,267.665 318.515,266.577 318.663 C 265.490 318.810,264.147 319.265,263.593 319.672 C 262.951 320.144,261.574 320.498,259.793 320.649 C 258.220 320.782,256.214 321.260,255.200 321.743 L 253.400 322.600 200.000 322.600 L 146.600 322.600 144.800 321.742 C 143.809 321.269,141.741 320.769,140.200 320.629 C 138.485 320.474,137.013 320.096,136.400 319.653 C 135.850 319.256,134.510 318.810,133.423 318.663 C 132.308 318.511,131.075 318.046,130.597 317.597 C 130.130 317.159,129.346 316.800,128.854 316.800 C 127.817 316.800,125.600 315.738,125.600 315.241 C 125.600 315.055,124.880 314.787,124.000 314.646 C 123.040 314.493,122.202 314.073,121.904 313.595 C 121.631 313.158,120.993 312.800,120.486 312.800 C 119.979 312.800,119.115 312.352,118.568 311.804 C 118.020 311.256,117.123 310.696,116.575 310.558 C 116.027 310.421,115.397 309.969,115.175 309.554 C 114.953 309.139,114.500 308.800,114.168 308.800 C 113.835 308.800,113.158 308.395,112.663 307.900 C 112.167 307.405,111.276 306.779,110.681 306.509 C 110.086 306.238,109.600 305.838,109.600 305.619 C 109.600 305.400,109.060 304.941,108.400 304.600 C 107.740 304.259,107.200 303.714,107.200 303.390 C 107.200 303.065,106.934 302.800,106.609 302.800 C 106.284 302.800,105.724 302.350,105.363 301.800 C 105.003 301.250,104.455 300.800,104.145 300.800 C 103.836 300.800,103.378 300.350,103.127 299.800 C 102.877 299.250,102.414 298.800,102.098 298.800 C 101.783 298.800,101.433 298.448,101.321 298.019 C 101.208 297.589,100.685 296.955,100.158 296.609 C 99.631 296.264,99.200 295.716,99.200 295.391 C 99.200 295.066,98.935 294.800,98.610 294.800 C 98.286 294.800,97.753 294.282,97.425 293.648 C 97.098 293.015,96.553 292.391,96.215 292.261 C 95.877 292.131,95.593 291.794,95.584 291.513 C 95.575 291.231,95.035 290.377,94.384 289.615 C 93.733 288.853,93.200 288.005,93.200 287.729 C 93.200 287.454,92.840 287.035,92.400 286.800 C 91.960 286.565,91.600 286.046,91.600 285.648 C 91.600 285.250,91.256 284.613,90.837 284.233 C 90.417 283.853,89.848 282.970,89.572 282.271 C 89.296 281.572,88.763 280.640,88.388 280.200 C 88.012 279.760,87.580 278.874,87.428 278.232 C 87.275 277.589,86.822 276.645,86.420 276.135 C 86.019 275.625,85.565 274.540,85.412 273.725 C 85.259 272.910,84.810 271.830,84.413 271.326 C 84.017 270.822,83.565 269.552,83.411 268.505 C 83.256 267.457,82.859 266.298,82.529 265.930 C 82.200 265.561,81.758 263.872,81.547 262.175 C 81.336 260.479,80.878 258.538,80.528 257.862 C 78.617 254.166,78.601 145.195,80.511 142.280 C 80.846 141.768,81.247 140.101,81.401 138.575 C 81.556 137.049,82.011 135.226,82.413 134.525 C 82.815 133.824,83.267 132.427,83.418 131.420 C 83.569 130.414,84.025 129.168,84.432 128.651 C 84.838 128.134,85.347 126.926,85.563 125.966 C 85.779 125.007,86.211 124.035,86.525 123.805 C 86.838 123.576,87.227 122.788,87.388 122.054 C 87.550 121.319,87.997 120.403,88.383 120.017 C 88.769 119.631,89.202 118.847,89.345 118.275 C 89.489 117.702,90.055 116.750,90.603 116.159 C 91.152 115.567,91.600 114.838,91.600 114.538 C 91.600 114.238,91.960 113.684,92.400 113.307 C 92.840 112.930,93.200 112.409,93.200 112.149 C 93.200 111.729,94.316 110.220,96.811 107.266 C 97.245 106.752,97.600 106.179,97.600 105.993 C 97.600 105.806,97.960 105.540,98.400 105.400 C 98.840 105.260,99.200 104.964,99.200 104.741 C 99.200 104.211,106.211 97.200,106.741 97.200 C 106.964 97.200,107.260 96.840,107.400 96.400 C 107.540 95.960,107.806 95.600,107.993 95.600 C 108.179 95.600,108.752 95.245,109.266 94.811 C 112.220 92.316,113.729 91.200,114.149 91.200 C 114.409 91.200,114.930 90.840,115.307 90.400 C 115.684 89.960,116.238 89.600,116.538 89.600 C 116.838 89.600,117.567 89.152,118.159 88.603 C 118.750 88.055,119.702 87.489,120.275 87.345 C 120.847 87.202,121.631 86.769,122.017 86.383 C 122.403 85.997,123.319 85.550,124.054 85.388 C 124.788 85.227,125.576 84.838,125.805 84.525 C 126.035 84.211,127.007 83.779,127.966 83.563 C 128.926 83.347,130.134 82.838,130.651 82.432 C 131.168 82.025,132.414 81.569,133.420 81.418 C 134.427 81.267,135.824 80.815,136.525 80.413 C 137.226 80.011,139.049 79.556,140.575 79.401 C 142.101 79.247,143.783 78.836,144.313 78.489 C 144.983 78.050,146.754 77.777,150.138 77.593 C 157.208 77.206,242.388 77.185,249.016 77.568 M151.960 87.436 C 150.839 88.029,146.360 88.779,143.863 88.792 C 142.962 88.797,141.921 89.119,141.348 89.570 C 140.739 90.048,139.378 90.446,137.753 90.620 C 136.192 90.787,135.056 91.111,134.936 91.422 C 134.710 92.012,132.709 92.800,131.437 92.800 C 130.972 92.800,130.373 93.151,130.105 93.580 C 129.835 94.013,128.946 94.482,128.109 94.633 C 127.279 94.783,126.280 95.240,125.889 95.648 C 125.498 96.056,124.688 96.512,124.089 96.660 C 123.490 96.808,122.765 97.260,122.477 97.665 C 122.190 98.069,121.701 98.400,121.391 98.400 C 121.081 98.400,120.213 98.940,119.461 99.600 C 118.709 100.260,117.803 100.800,117.447 100.800 C 117.091 100.800,116.800 101.086,116.800 101.435 C 116.800 101.784,116.260 102.273,115.600 102.522 C 114.940 102.772,114.400 103.212,114.400 103.500 C 114.400 103.789,114.086 104.146,113.703 104.293 C 112.796 104.641,106.641 110.796,106.293 111.703 C 106.146 112.086,105.789 112.400,105.500 112.400 C 105.212 112.400,104.772 112.940,104.522 113.600 C 104.273 114.260,103.784 114.800,103.435 114.800 C 103.086 114.800,102.800 115.091,102.800 115.447 C 102.800 115.803,102.260 116.709,101.600 117.461 C 100.940 118.213,100.400 119.081,100.400 119.391 C 100.400 119.701,100.069 120.190,99.665 120.477 C 99.260 120.765,98.808 121.490,98.660 122.089 C 98.512 122.688,98.056 123.498,97.648 123.889 C 97.240 124.280,96.783 125.279,96.633 126.109 C 96.482 126.946,96.013 127.835,95.580 128.105 C 95.151 128.373,94.800 128.972,94.800 129.437 C 94.800 130.709,94.012 132.710,93.422 132.936 C 93.111 133.056,92.787 134.192,92.620 135.753 C 92.446 137.378,92.048 138.739,91.570 139.348 C 91.119 139.921,90.797 140.962,90.792 141.863 C 90.779 144.399,90.021 148.875,89.391 150.139 C 88.450 152.024,88.505 248.086,89.448 249.976 C 89.804 250.690,90.291 253.283,90.529 255.737 C 90.811 258.635,91.157 260.347,91.516 260.620 C 91.821 260.851,92.274 262.336,92.524 263.920 C 92.773 265.504,93.126 266.800,93.309 266.800 C 93.774 266.800,94.800 269.377,94.800 270.544 C 94.800 271.078,95.060 271.614,95.378 271.736 C 95.695 271.858,96.178 272.732,96.450 273.679 C 96.723 274.625,97.270 275.720,97.668 276.111 C 98.065 276.502,98.512 277.312,98.660 277.911 C 98.808 278.510,99.260 279.235,99.665 279.523 C 100.069 279.810,100.400 280.299,100.400 280.609 C 100.400 280.919,100.940 281.787,101.600 282.539 C 102.260 283.291,102.800 284.100,102.800 284.339 C 102.800 284.889,103.289 285.429,109.828 292.100 C 112.793 295.125,115.393 297.600,115.606 297.600 C 115.819 297.600,116.218 297.960,116.493 298.400 C 116.768 298.840,117.194 299.200,117.441 299.200 C 117.688 299.200,118.569 299.740,119.400 300.400 C 120.231 301.060,121.154 301.600,121.452 301.600 C 121.749 301.600,122.218 301.960,122.493 302.400 C 122.768 302.840,123.284 303.200,123.641 303.200 C 123.998 303.200,124.969 303.740,125.800 304.400 C 126.631 305.060,127.735 305.600,128.255 305.600 C 128.775 305.600,129.557 305.957,129.994 306.394 C 130.431 306.831,131.523 307.306,132.421 307.450 C 133.319 307.593,134.298 307.955,134.597 308.254 C 135.336 308.993,137.024 309.600,138.341 309.600 C 138.941 309.600,140.130 309.957,140.985 310.392 C 141.944 310.881,144.044 311.339,146.473 311.588 C 148.636 311.810,151.057 312.264,151.852 312.596 C 154.054 313.516,245.964 313.509,248.166 312.588 C 248.971 312.252,251.552 311.795,253.901 311.572 C 256.638 311.313,258.410 310.953,258.833 310.570 C 259.196 310.242,260.624 309.791,262.007 309.568 C 263.390 309.345,264.942 308.832,265.457 308.427 C 265.972 308.022,267.070 307.564,267.897 307.410 C 268.723 307.256,269.722 306.785,270.116 306.365 C 270.509 305.944,271.229 305.597,271.716 305.593 C 272.202 305.589,273.392 305.049,274.360 304.393 C 275.328 303.737,276.363 303.200,276.660 303.200 C 276.957 303.200,277.200 303.024,277.200 302.808 C 277.200 302.593,277.875 302.070,278.700 301.647 C 279.525 301.224,280.633 300.500,281.161 300.039 C 281.690 299.578,282.322 299.200,282.565 299.200 C 282.808 299.200,283.232 298.840,283.507 298.400 C 283.782 297.960,284.203 297.600,284.443 297.600 C 285.014 297.600,295.600 287.014,295.600 286.443 C 295.600 286.203,295.960 285.782,296.400 285.507 C 296.840 285.232,297.200 284.773,297.200 284.486 C 297.200 284.199,297.605 283.555,298.100 283.056 C 298.595 282.557,299.312 281.485,299.694 280.674 C 300.075 279.863,300.550 279.200,300.750 279.200 C 300.950 279.200,301.234 278.717,301.383 278.127 C 301.531 277.537,302.090 276.533,302.626 275.896 C 303.162 275.260,303.600 274.309,303.600 273.785 C 303.600 273.260,303.944 272.509,304.365 272.116 C 304.785 271.722,305.256 270.723,305.410 269.897 C 305.564 269.070,306.022 267.972,306.427 267.457 C 306.832 266.942,307.345 265.390,307.568 264.007 C 307.791 262.624,308.242 261.196,308.570 260.833 C 308.953 260.410,309.313 258.638,309.572 255.901 C 309.795 253.552,310.252 250.971,310.588 250.166 C 311.509 247.963,311.516 152.054,310.596 149.852 C 310.264 149.057,309.810 146.636,309.588 144.473 C 309.339 142.044,308.881 139.944,308.392 138.985 C 307.957 138.130,307.600 136.941,307.600 136.341 C 307.600 135.024,306.993 133.336,306.254 132.597 C 305.955 132.298,305.593 131.319,305.450 130.421 C 305.306 129.523,304.831 128.431,304.394 127.994 C 303.957 127.557,303.600 126.775,303.600 126.255 C 303.600 125.735,303.060 124.631,302.400 123.800 C 301.740 122.969,301.200 121.998,301.200 121.641 C 301.200 121.284,300.840 120.768,300.400 120.493 C 299.960 120.218,299.600 119.749,299.600 119.452 C 299.600 119.154,299.060 118.231,298.400 117.400 C 297.740 116.569,297.200 115.645,297.200 115.345 C 297.200 115.045,296.942 114.800,296.627 114.800 C 296.312 114.800,295.931 114.412,295.780 113.937 C 295.629 113.462,293.052 110.683,290.053 107.761 C 283.310 101.192,282.876 100.800,282.339 100.800 C 282.100 100.800,281.291 100.260,280.539 99.600 C 279.787 98.940,278.919 98.400,278.609 98.400 C 278.299 98.400,277.810 98.069,277.523 97.665 C 277.235 97.260,276.510 96.808,275.911 96.660 C 275.312 96.512,274.502 96.065,274.111 95.668 C 273.720 95.270,272.625 94.723,271.679 94.450 C 270.732 94.178,269.858 93.695,269.736 93.378 C 269.614 93.060,269.095 92.800,268.583 92.800 C 267.368 92.800,265.579 92.110,265.033 91.430 C 264.795 91.134,263.624 90.771,262.431 90.623 C 260.409 90.372,258.871 89.836,258.400 89.218 C 258.290 89.074,256.192 88.762,253.737 88.526 C 251.276 88.288,248.692 87.805,247.976 87.448 C 246.159 86.541,153.671 86.530,151.960 87.436 M202.099 125.621 C 204.943 126.411,204.800 124.497,204.800 161.780 L 204.800 195.200 237.700 195.202 C 276.545 195.205,274.800 194.979,274.800 200.000 C 274.800 205.055,276.743 204.800,238.174 204.800 L 204.800 204.800 204.800 238.181 C 204.800 276.875,205.072 274.800,200.000 274.800 C 194.979 274.800,195.205 276.545,195.202 237.700 L 195.200 204.800 161.780 204.800 C 124.271 204.800,126.399 204.967,125.587 201.952 C 124.996 199.758,125.428 197.501,126.660 196.344 L 127.664 195.400 161.423 195.291 L 195.182 195.182 195.291 161.423 L 195.400 127.664 196.350 126.653 C 197.670 125.248,199.545 124.912,202.099 125.621 " stroke="none" fill="#fbfbfb" fill-rule="evenodd"></path><path id="path2" d="M154.200 78.388 C 151.560 78.550,148.680 78.882,147.800 79.126 C 146.920 79.370,144.850 79.776,143.200 80.029 C 141.550 80.282,139.300 80.815,138.200 81.213 C 137.100 81.610,135.570 82.064,134.800 82.221 C 134.030 82.378,132.773 82.843,132.006 83.253 C 131.239 83.664,130.329 84.000,129.984 84.000 C 129.298 84.000,120.928 88.136,119.000 89.428 C 118.340 89.870,117.509 90.405,117.154 90.616 C 108.377 95.832,97.957 106.255,92.616 115.160 C 92.405 115.512,91.870 116.340,91.428 117.000 C 90.136 118.928,86.000 127.298,86.000 127.984 C 86.000 128.329,85.664 129.239,85.253 130.006 C 84.843 130.773,84.378 132.030,84.221 132.800 C 84.064 133.570,83.612 135.100,83.216 136.200 C 82.820 137.300,82.372 139.010,82.222 140.000 C 82.071 140.990,81.555 143.690,81.074 146.000 C 79.705 152.580,79.700 247.382,81.068 254.000 C 81.546 256.310,82.049 258.920,82.186 259.800 C 82.524 261.977,84.281 267.816,85.227 269.911 C 85.652 270.852,86.000 271.824,86.000 272.071 C 86.000 272.873,91.991 284.502,93.073 285.800 C 93.256 286.020,93.753 286.740,94.177 287.400 C 94.600 288.060,95.185 288.839,95.476 289.131 C 95.767 289.423,96.179 289.988,96.392 290.386 C 97.331 292.139,107.613 302.840,109.964 304.510 C 111.208 305.393,117.283 309.515,119.200 310.777 C 120.962 311.936,129.306 315.882,132.200 316.923 C 146.198 321.963,147.602 322.062,203.164 321.913 C 252.960 321.779,248.411 321.965,259.000 319.630 C 261.946 318.980,266.584 317.541,268.226 316.767 C 269.121 316.345,270.069 316.000,270.334 316.000 C 270.812 316.000,272.809 315.069,277.400 312.707 C 285.800 308.384,295.868 300.186,302.095 292.600 C 303.061 291.424,303.395 290.942,306.563 286.160 C 307.423 284.862,308.436 283.342,308.814 282.782 C 309.557 281.683,312.069 276.794,313.223 274.200 C 316.368 267.132,318.784 257.622,319.624 249.000 C 320.031 244.826,320.031 155.174,319.624 151.000 C 318.488 139.342,313.862 124.928,308.777 117.200 C 307.570 115.366,303.412 109.235,302.476 107.909 C 301.461 106.471,292.062 97.137,290.180 95.698 C 284.799 91.583,281.355 89.316,278.700 88.142 C 277.875 87.777,277.200 87.326,277.200 87.139 C 277.200 86.953,277.006 86.800,276.769 86.800 C 276.532 86.800,275.028 86.170,273.427 85.400 C 271.826 84.630,270.315 84.000,270.069 84.000 C 269.823 84.000,268.852 83.652,267.911 83.227 C 265.444 82.113,259.820 80.487,256.800 80.015 C 255.370 79.791,252.940 79.311,251.400 78.947 C 248.344 78.225,164.684 77.744,154.200 78.388 M249.348 79.404 C 250.143 79.736,252.640 80.195,254.897 80.424 C 257.212 80.658,259.697 81.162,260.600 81.581 C 261.480 81.989,263.093 82.447,264.184 82.598 C 265.275 82.750,266.593 83.208,267.112 83.617 C 267.631 84.025,268.843 84.477,269.804 84.622 C 270.765 84.766,271.863 85.228,272.243 85.648 C 272.624 86.068,273.613 86.521,274.443 86.653 C 275.272 86.786,276.039 87.125,276.147 87.407 C 276.255 87.689,277.007 88.138,277.818 88.406 C 278.629 88.674,279.627 89.227,280.036 89.636 C 280.445 90.045,281.279 90.503,281.890 90.654 C 282.500 90.806,283.235 91.260,283.523 91.665 C 283.810 92.069,284.235 92.400,284.468 92.400 C 284.700 92.400,285.501 92.895,286.248 93.500 C 286.994 94.105,288.213 95.095,288.955 95.700 C 289.698 96.305,290.399 96.800,290.512 96.800 C 290.626 96.800,291.638 97.700,292.761 98.800 C 293.885 99.900,294.983 100.800,295.202 100.800 C 295.421 100.800,295.600 101.074,295.600 101.409 C 295.600 101.743,296.050 102.222,296.600 102.473 C 297.150 102.723,297.600 103.104,297.600 103.318 C 297.600 103.532,298.455 104.571,299.500 105.626 C 300.545 106.682,301.850 108.204,302.400 109.008 C 302.950 109.813,303.895 111.064,304.500 111.788 C 305.105 112.513,305.600 113.285,305.600 113.504 C 305.600 113.723,305.880 114.135,306.223 114.419 C 306.566 114.704,307.112 115.573,307.438 116.352 C 307.763 117.131,308.383 118.097,308.815 118.500 C 309.247 118.902,309.600 119.549,309.600 119.938 C 309.600 120.327,310.050 121.255,310.600 122.000 C 311.150 122.745,311.600 123.656,311.600 124.024 C 311.600 124.391,311.954 125.142,312.386 125.691 C 312.818 126.241,313.369 127.567,313.609 128.639 C 313.849 129.710,314.311 130.881,314.636 131.240 C 314.961 131.599,315.411 133.042,315.636 134.447 C 315.861 135.851,316.306 137.400,316.624 137.889 C 316.943 138.377,317.384 140.512,317.603 142.632 C 317.823 144.753,318.317 147.503,318.702 148.744 C 319.776 152.215,319.779 248.311,318.704 251.400 C 318.322 252.500,317.828 255.160,317.606 257.311 C 317.385 259.463,316.943 261.623,316.624 262.111 C 316.306 262.600,315.861 264.149,315.636 265.553 C 315.411 266.958,314.961 268.401,314.636 268.760 C 314.311 269.119,313.849 270.290,313.609 271.361 C 313.369 272.433,312.818 273.759,312.386 274.309 C 311.954 274.858,311.600 275.609,311.600 275.976 C 311.600 276.344,311.150 277.255,310.600 278.000 C 310.050 278.745,309.600 279.656,309.600 280.023 C 309.600 280.390,309.060 281.369,308.400 282.200 C 307.740 283.031,307.200 283.927,307.200 284.193 C 307.200 284.459,306.840 285.002,306.400 285.400 C 305.960 285.798,305.600 286.297,305.600 286.509 C 305.600 286.721,305.105 287.487,304.500 288.212 C 303.895 288.936,302.950 290.185,302.400 290.988 C 301.850 291.790,300.545 293.333,299.500 294.415 C 298.455 295.497,297.600 296.483,297.600 296.605 C 297.600 296.892,294.895 299.600,294.608 299.600 C 294.487 299.600,293.536 300.417,292.494 301.416 C 290.367 303.456,284.985 307.600,284.464 307.600 C 284.277 307.600,283.798 307.960,283.400 308.400 C 283.002 308.840,282.459 309.200,282.193 309.200 C 281.927 309.200,281.031 309.740,280.200 310.400 C 279.369 311.060,278.390 311.600,278.023 311.600 C 277.656 311.600,276.745 312.050,276.000 312.600 C 275.255 313.150,274.344 313.600,273.976 313.600 C 273.609 313.600,272.858 313.954,272.309 314.386 C 271.759 314.818,270.433 315.369,269.361 315.609 C 268.290 315.849,267.119 316.311,266.760 316.636 C 266.401 316.961,264.958 317.411,263.553 317.636 C 262.149 317.861,260.600 318.306,260.111 318.624 C 259.623 318.943,257.463 319.385,255.311 319.606 C 253.160 319.828,250.500 320.322,249.400 320.704 C 246.312 321.778,154.213 321.776,150.744 320.702 C 149.503 320.317,146.753 319.823,144.632 319.603 C 142.512 319.384,140.377 318.943,139.889 318.624 C 139.400 318.306,137.851 317.861,136.447 317.636 C 135.042 317.411,133.599 316.961,133.240 316.636 C 132.881 316.311,131.710 315.849,130.639 315.609 C 129.567 315.369,128.241 314.818,127.691 314.386 C 127.142 313.954,126.391 313.600,126.024 313.600 C 125.656 313.600,124.745 313.150,124.000 312.600 C 123.255 312.050,122.327 311.600,121.938 311.600 C 121.549 311.600,120.902 311.247,120.500 310.815 C 120.097 310.383,119.131 309.763,118.352 309.438 C 117.573 309.112,116.704 308.566,116.419 308.223 C 116.135 307.880,115.723 307.600,115.504 307.600 C 115.285 307.600,114.513 307.105,113.788 306.500 C 113.064 305.895,111.815 304.950,111.012 304.400 C 110.210 303.850,108.667 302.545,107.585 301.500 C 106.503 300.455,105.462 299.600,105.273 299.600 C 105.083 299.600,104.723 299.150,104.473 298.600 C 104.222 298.050,103.743 297.600,103.409 297.600 C 103.074 297.600,102.800 297.421,102.800 297.202 C 102.800 296.983,101.900 295.885,100.800 294.761 C 99.700 293.638,98.800 292.579,98.800 292.408 C 98.800 292.238,98.506 291.854,98.146 291.555 C 97.786 291.256,97.072 290.379,96.559 289.606 C 96.047 288.833,95.091 287.480,94.436 286.600 C 93.781 285.720,92.885 284.235,92.445 283.300 C 92.005 282.365,91.483 281.600,91.286 281.600 C 91.088 281.600,90.708 280.870,90.441 279.979 C 90.174 279.087,89.717 278.266,89.425 278.154 C 89.133 278.042,88.786 277.272,88.653 276.443 C 88.521 275.613,88.068 274.624,87.648 274.243 C 87.228 273.863,86.766 272.765,86.622 271.804 C 86.477 270.843,86.025 269.631,85.617 269.112 C 85.208 268.593,84.750 267.275,84.598 266.184 C 84.447 265.093,83.989 263.480,83.581 262.600 C 83.162 261.697,82.658 259.212,82.424 256.897 C 82.195 254.640,81.736 252.143,81.404 251.348 C 80.487 249.153,80.490 150.839,81.408 148.644 C 81.742 147.844,82.206 145.287,82.441 142.962 C 82.711 140.271,83.131 138.273,83.595 137.467 C 83.997 136.770,84.455 135.210,84.613 134.000 C 84.772 132.790,85.229 131.382,85.630 130.872 C 86.031 130.361,86.477 129.157,86.622 128.196 C 86.766 127.235,87.215 126.149,87.619 125.783 C 88.024 125.417,88.473 124.576,88.619 123.916 C 88.764 123.255,89.314 122.078,89.841 121.301 C 90.369 120.524,90.800 119.652,90.800 119.362 C 90.800 119.073,91.250 118.386,91.800 117.836 C 92.350 117.286,92.800 116.475,92.800 116.032 C 92.800 115.590,93.160 115.035,93.600 114.800 C 94.040 114.565,94.400 114.119,94.400 113.811 C 94.400 113.502,94.940 112.658,95.600 111.936 C 96.260 111.213,96.800 110.424,96.800 110.183 C 96.800 109.942,97.250 109.353,97.800 108.875 C 98.350 108.397,98.800 107.746,98.800 107.430 C 98.800 107.113,99.160 106.740,99.600 106.600 C 100.040 106.460,100.400 106.183,100.400 105.984 C 100.400 105.511,107.511 98.400,107.984 98.400 C 108.183 98.400,108.460 98.040,108.600 97.600 C 108.740 97.160,109.113 96.800,109.430 96.800 C 109.746 96.800,110.397 96.350,110.875 95.800 C 111.353 95.250,111.942 94.800,112.183 94.800 C 112.424 94.800,113.213 94.260,113.936 93.600 C 114.658 92.940,115.502 92.400,115.811 92.400 C 116.119 92.400,116.565 92.040,116.800 91.600 C 117.035 91.160,117.590 90.800,118.032 90.800 C 118.475 90.800,119.286 90.350,119.836 89.800 C 120.386 89.250,121.073 88.800,121.362 88.800 C 121.652 88.800,122.524 88.369,123.301 87.841 C 124.078 87.314,125.255 86.764,125.916 86.619 C 126.576 86.473,127.417 86.024,127.783 85.619 C 128.149 85.215,129.235 84.766,130.196 84.622 C 131.157 84.477,132.361 84.031,132.872 83.630 C 133.382 83.229,134.790 82.772,136.000 82.613 C 137.210 82.455,138.770 81.997,139.467 81.595 C 140.272 81.132,142.269 80.712,144.948 80.442 C 147.266 80.209,149.756 79.758,150.481 79.442 C 152.519 78.551,247.221 78.515,249.348 79.404 M148.200 85.869 C 147.760 85.971,146.364 86.402,145.098 86.827 C 143.833 87.252,142.116 87.600,141.283 87.600 C 140.450 87.600,139.066 87.958,138.207 88.396 C 137.348 88.834,136.005 89.301,135.222 89.434 C 134.440 89.566,133.331 90.004,132.758 90.406 C 132.185 90.809,130.991 91.333,130.105 91.572 C 129.218 91.810,128.280 92.263,128.019 92.577 C 127.758 92.891,126.972 93.270,126.272 93.417 C 125.573 93.565,124.640 94.004,124.200 94.391 C 123.760 94.779,122.941 95.345,122.380 95.648 C 120.361 96.740,118.678 97.814,117.757 98.600 C 117.241 99.040,116.162 99.850,115.359 100.400 C 112.072 102.651,104.651 110.072,102.400 113.359 C 101.850 114.162,101.040 115.241,100.600 115.757 C 99.814 116.678,98.740 118.361,97.648 120.380 C 97.345 120.941,96.779 121.760,96.391 122.200 C 96.004 122.640,95.565 123.573,95.417 124.272 C 95.270 124.972,94.891 125.758,94.577 126.019 C 94.263 126.280,93.810 127.218,93.572 128.105 C 93.333 128.991,92.809 130.185,92.406 130.758 C 92.004 131.331,91.566 132.440,91.434 133.222 C 91.301 134.005,90.834 135.348,90.396 136.207 C 89.958 137.066,89.600 138.450,89.600 139.283 C 89.600 140.116,89.195 141.923,88.700 143.298 L 87.800 145.800 87.800 200.400 C 87.800 252.239,87.836 255.071,88.522 256.400 C 88.918 257.170,89.398 259.022,89.586 260.516 C 89.775 262.010,90.202 263.649,90.535 264.158 C 90.869 264.667,91.265 265.784,91.416 266.642 C 91.566 267.499,92.094 268.920,92.588 269.800 C 93.082 270.680,93.602 271.882,93.744 272.472 C 93.885 273.062,94.238 273.782,94.528 274.072 C 94.817 274.362,95.260 275.193,95.513 275.919 C 95.765 276.644,96.338 277.703,96.786 278.273 C 97.234 278.842,97.600 279.467,97.600 279.663 C 97.600 280.105,99.436 282.982,100.787 284.656 C 101.344 285.347,102.160 286.383,102.600 286.957 C 105.341 290.534,109.459 294.858,112.546 297.400 C 113.348 298.060,114.549 299.095,115.216 299.700 C 115.882 300.305,116.672 300.800,116.971 300.800 C 117.270 300.800,117.619 301.072,117.746 301.403 C 117.873 301.735,118.478 302.223,119.089 302.488 C 119.700 302.752,120.709 303.381,121.331 303.884 C 121.953 304.388,122.690 304.800,122.969 304.800 C 123.248 304.800,123.793 305.150,124.179 305.577 C 124.566 306.005,125.423 306.473,126.082 306.618 C 126.742 306.763,127.613 307.213,128.018 307.618 C 128.424 308.024,129.432 308.482,130.258 308.637 C 131.085 308.792,132.100 309.234,132.513 309.619 C 132.926 310.004,134.097 310.444,135.116 310.596 C 136.135 310.749,137.382 311.199,137.887 311.597 C 138.463 312.050,139.881 312.427,141.692 312.609 C 143.280 312.769,144.970 313.155,145.447 313.467 C 148.450 315.435,251.558 315.430,254.562 313.462 C 255.034 313.152,256.720 312.769,258.308 312.609 C 260.119 312.427,261.537 312.050,262.113 311.597 C 262.618 311.199,263.882 310.747,264.921 310.591 C 265.959 310.435,267.212 310.003,267.705 309.630 C 268.197 309.257,269.375 308.727,270.321 308.453 C 271.268 308.179,272.135 307.713,272.249 307.417 C 272.362 307.121,273.083 306.761,273.850 306.617 C 274.617 306.473,275.557 306.043,275.939 305.661 C 276.322 305.278,277.212 304.727,277.917 304.434 C 278.623 304.142,279.200 303.747,279.200 303.557 C 279.200 303.366,279.785 302.937,280.500 302.602 C 282.164 301.823,284.505 300.112,284.919 299.373 C 285.095 299.058,285.506 298.800,285.832 298.800 C 286.449 298.800,296.800 288.665,296.800 288.061 C 296.800 287.872,297.205 287.254,297.700 286.689 C 299.733 284.368,304.273 277.257,304.627 275.842 C 304.786 275.205,305.231 274.369,305.617 273.983 C 306.003 273.597,306.450 272.678,306.611 271.941 C 306.772 271.203,307.220 270.197,307.606 269.705 C 307.992 269.212,308.435 267.959,308.591 266.921 C 308.747 265.882,309.199 264.618,309.597 264.113 C 310.050 263.537,310.427 262.119,310.609 260.308 C 310.769 258.720,311.152 257.034,311.462 256.562 C 313.434 253.552,313.439 146.455,311.467 143.447 C 311.155 142.970,310.769 141.280,310.609 139.692 C 310.427 137.881,310.050 136.463,309.597 135.887 C 309.199 135.382,308.749 134.135,308.596 133.116 C 308.444 132.097,308.004 130.926,307.619 130.513 C 307.234 130.100,306.792 129.085,306.637 128.258 C 306.482 127.432,306.024 126.424,305.618 126.018 C 305.213 125.613,304.762 124.736,304.615 124.068 C 304.468 123.401,304.080 122.632,303.751 122.359 C 303.423 122.087,302.894 121.309,302.576 120.632 C 302.258 119.954,301.503 118.666,300.899 117.770 C 300.294 116.873,299.377 115.478,298.860 114.670 C 298.344 113.861,297.763 113.200,297.571 113.200 C 297.378 113.200,296.957 112.705,296.634 112.100 C 295.599 110.158,288.776 103.420,284.987 100.600 C 284.396 100.160,283.347 99.345,282.656 98.788 C 280.685 97.201,278.200 95.600,277.709 95.600 C 277.463 95.600,276.753 95.177,276.131 94.661 C 275.509 94.144,274.490 93.597,273.866 93.445 C 273.242 93.292,272.353 92.815,271.890 92.384 C 271.428 91.953,270.710 91.600,270.296 91.600 C 269.881 91.600,268.790 91.170,267.871 90.645 C 266.952 90.119,265.499 89.566,264.642 89.416 C 263.784 89.265,262.673 88.873,262.172 88.545 C 261.671 88.217,260.033 87.777,258.531 87.567 C 257.029 87.356,255.170 86.873,254.400 86.492 C 253.059 85.829,150.965 85.230,148.200 85.869 M255.400 87.493 C 272.783 91.620,286.192 99.999,296.862 113.400 C 298.868 115.920,304.000 123.724,304.000 124.255 C 304.000 124.372,304.561 125.668,305.246 127.134 C 305.932 128.600,306.740 130.340,307.042 131.000 C 308.227 133.589,309.743 138.856,310.842 144.200 L 311.993 149.800 311.987 200.200 C 311.983 232.113,311.836 251.187,311.585 252.200 C 311.367 253.080,310.822 255.772,310.374 258.183 C 309.927 260.593,309.403 262.756,309.210 262.988 C 309.017 263.221,308.643 264.308,308.380 265.405 C 308.116 266.502,307.680 267.760,307.411 268.200 C 307.142 268.640,306.691 269.720,306.410 270.600 C 306.129 271.480,305.681 272.470,305.415 272.800 C 305.149 273.130,304.683 274.030,304.378 274.800 C 304.074 275.570,303.146 277.280,302.317 278.600 C 301.488 279.920,300.512 281.540,300.148 282.200 C 297.548 286.912,282.609 302.000,280.544 302.000 C 280.379 302.000,279.603 302.419,278.822 302.931 C 274.994 305.436,274.089 305.955,272.700 306.439 C 271.875 306.726,271.200 307.090,271.200 307.248 C 271.200 307.406,270.255 307.848,269.100 308.229 C 267.945 308.611,266.640 309.143,266.200 309.411 C 265.760 309.680,264.502 310.116,263.405 310.380 C 262.308 310.643,261.221 311.017,260.988 311.210 C 260.756 311.403,258.593 311.927,256.183 312.374 C 253.772 312.822,251.080 313.367,250.200 313.585 C 249.189 313.835,230.792 313.983,200.200 313.987 L 151.800 313.993 146.200 312.842 C 140.871 311.747,135.614 310.235,133.000 309.045 C 132.340 308.745,130.810 308.038,129.600 307.474 C 128.390 306.910,126.950 306.254,126.400 306.016 C 125.850 305.779,124.590 305.054,123.600 304.406 C 122.610 303.759,121.260 302.926,120.600 302.557 C 110.060 296.651,97.999 281.935,93.172 269.092 C 92.492 267.281,91.598 264.900,91.186 263.800 C 90.774 262.700,89.933 259.460,89.318 256.600 L 88.200 251.400 88.200 199.800 L 88.200 148.200 89.100 144.745 C 89.595 142.845,90.000 140.995,90.000 140.635 C 90.000 140.274,90.471 138.498,91.046 136.689 C 98.369 113.650,115.650 96.369,138.689 89.046 C 140.498 88.471,142.306 88.000,142.705 88.000 C 143.105 88.000,144.505 87.719,145.816 87.376 C 150.513 86.147,153.223 86.088,201.400 86.173 L 250.200 86.258 255.400 87.493 M197.905 126.829 C 196.192 127.827,196.209 127.512,196.000 162.400 L 195.800 195.800 162.400 196.000 C 136.391 196.156,128.803 196.313,128.109 196.709 C 125.975 197.929,125.736 201.058,127.640 202.837 L 128.880 203.995 162.340 204.098 L 195.800 204.200 196.000 237.600 C 196.213 273.106,196.147 272.018,198.170 273.343 C 199.749 274.378,201.117 274.163,202.640 272.640 L 204.000 271.280 204.000 238.120 C 204.000 212.862,204.114 204.846,204.480 204.480 C 204.846 204.114,212.862 204.000,238.120 204.000 L 271.280 204.000 272.640 202.640 C 274.163 201.117,274.378 199.749,273.343 198.170 C 272.018 196.147,273.106 196.213,237.600 196.000 L 204.200 195.800 204.098 162.340 L 203.995 128.880 202.837 127.640 C 201.609 126.325,199.395 125.961,197.905 126.829 M202.400 128.106 L 203.400 129.368 203.505 162.584 C 203.601 193.145,203.663 195.840,204.281 196.300 C 204.806 196.691,212.199 196.800,238.058 196.800 L 271.164 196.800 272.182 197.818 C 273.547 199.183,273.516 200.842,272.100 202.282 L 271.000 203.400 237.830 203.509 C 214.789 203.585,204.501 203.750,204.139 204.051 C 203.720 204.398,203.596 211.003,203.509 237.742 L 203.400 271.000 202.282 272.100 C 200.893 273.466,199.373 273.503,197.900 272.207 L 196.800 271.238 196.800 238.096 C 196.800 212.206,196.691 204.806,196.300 204.281 C 195.840 203.663,193.145 203.601,162.584 203.505 L 129.368 203.400 128.106 202.400 C 126.468 201.102,126.354 199.282,127.818 197.818 L 128.836 196.800 162.018 196.800 C 194.667 196.800,195.213 196.787,196.000 196.000 C 196.787 195.213,196.800 194.667,196.800 162.014 L 196.800 128.828 197.700 127.856 C 199.067 126.380,201.119 126.489,202.400 128.106 " stroke="none" fill="#646464" fill-rule="evenodd"></path><path id="path3" d="M146.600 78.996 C 144.180 79.507,142.650 79.939,143.200 79.956 C 143.750 79.974,145.370 79.700,146.800 79.347 C 148.230 78.995,151.560 78.576,154.200 78.417 L 159.000 78.127 155.000 78.097 C 152.244 78.076,149.632 78.356,146.600 78.996 M245.200 78.414 C 248.170 78.569,251.770 78.987,253.200 79.342 C 254.630 79.697,256.250 79.970,256.800 79.948 C 257.576 79.917,257.486 79.842,256.400 79.612 C 255.630 79.450,253.613 79.020,251.917 78.658 C 249.926 78.233,247.233 78.023,244.317 78.066 L 239.800 78.132 245.200 78.414 M137.000 81.075 C 133.360 82.203,129.098 83.981,130.006 83.992 C 130.339 83.997,131.260 83.653,132.052 83.228 C 132.844 82.804,134.191 82.330,135.046 82.176 C 135.901 82.021,136.906 81.737,137.279 81.545 C 137.652 81.352,138.912 80.937,140.079 80.624 C 141.246 80.310,141.750 80.060,141.200 80.068 C 140.650 80.076,138.760 80.530,137.000 81.075 M259.800 80.606 C 264.096 81.763,267.128 82.742,268.317 83.357 C 269.001 83.711,269.794 83.997,270.080 83.992 C 270.927 83.980,266.461 82.145,262.875 81.032 C 261.047 80.464,259.157 80.015,258.675 80.034 C 258.194 80.053,258.700 80.310,259.800 80.606 M126.600 85.010 C 124.525 86.288,125.027 86.282,127.438 85.000 C 128.473 84.450,129.067 84.006,128.760 84.012 C 128.452 84.019,127.480 84.468,126.600 85.010 M272.562 85.000 C 273.596 85.550,274.568 85.999,274.721 85.998 C 275.251 85.994,271.798 84.025,271.240 84.012 C 270.933 84.006,271.527 84.450,272.562 85.000 M122.600 86.990 C 121.720 87.532,121.180 87.975,121.400 87.975 C 121.620 87.975,122.520 87.532,123.400 86.990 C 124.280 86.448,124.820 86.004,124.600 86.004 C 124.380 86.004,123.480 86.448,122.600 86.990 M201.200 86.412 C 245.637 86.627,250.404 86.712,252.387 87.325 C 253.590 87.696,255.030 87.984,255.587 87.964 C 256.144 87.944,255.160 87.548,253.400 87.085 C 250.233 86.251,249.688 86.242,201.200 86.209 L 152.200 86.176 201.200 86.412 M276.000 86.516 C 276.550 86.770,277.090 87.098,277.200 87.244 C 277.310 87.390,278.030 87.804,278.800 88.163 C 281.533 89.439,284.973 91.717,290.180 95.698 C 292.062 97.137,301.461 106.471,302.476 107.909 C 303.412 109.235,307.570 115.366,308.777 117.200 C 311.050 120.655,314.824 129.436,316.943 136.200 C 317.494 137.960,317.957 139.079,317.972 138.687 C 317.988 138.295,317.758 137.395,317.463 136.687 C 317.168 135.979,316.691 134.410,316.404 133.200 C 316.117 131.990,315.549 130.373,315.141 129.606 C 314.733 128.839,314.400 127.981,314.400 127.698 C 314.400 127.416,313.860 126.173,313.200 124.936 C 312.540 123.699,312.000 122.456,312.000 122.172 C 312.000 121.889,311.775 121.419,311.500 121.129 C 311.225 120.838,310.679 119.970,310.286 119.200 C 309.538 117.735,307.934 115.026,307.205 114.000 C 306.971 113.670,306.469 112.929,306.090 112.354 C 303.672 108.686,302.926 107.722,300.499 105.128 C 294.599 98.821,289.501 94.343,284.600 91.161 C 281.296 89.017,278.920 87.600,278.628 87.600 C 278.462 87.600,277.869 87.240,277.309 86.800 C 276.750 86.360,276.001 86.012,275.646 86.027 C 275.231 86.044,275.357 86.219,276.000 86.516 M146.600 87.200 C 145.060 87.603,144.262 87.947,144.827 87.966 C 145.392 87.985,146.742 87.742,147.827 87.426 C 148.912 87.110,150.340 86.777,151.000 86.686 C 152.124 86.530,152.111 86.518,150.800 86.494 C 150.030 86.480,148.140 86.797,146.600 87.200 M119.200 88.763 C 118.650 89.159,117.121 90.184,115.802 91.041 C 107.405 96.499,98.506 105.398,93.040 113.802 C 92.183 115.121,91.132 116.709,90.705 117.331 C 90.279 117.954,90.009 118.542,90.105 118.639 C 90.257 118.790,91.175 117.515,92.610 115.160 C 98.278 105.857,109.173 95.054,117.581 90.400 C 119.137 89.539,121.071 88.024,120.600 88.035 C 120.380 88.040,119.750 88.368,119.200 88.763 M139.292 88.876 C 137.912 89.339,136.873 89.807,136.983 89.916 C 137.093 90.026,137.951 89.824,138.891 89.468 C 139.831 89.112,141.320 88.654,142.200 88.450 C 143.292 88.198,143.482 88.073,142.800 88.057 C 142.250 88.045,140.671 88.413,139.292 88.876 M258.600 88.526 C 259.700 88.815,260.993 89.265,261.474 89.526 C 261.954 89.787,262.584 89.996,262.874 89.991 C 263.935 89.973,259.845 88.387,258.248 88.197 C 256.682 88.011,256.700 88.027,258.600 88.526 M133.200 91.000 C 132.210 91.530,131.675 91.972,132.011 91.982 C 132.347 91.992,133.034 91.711,133.539 91.358 C 134.043 91.005,134.938 90.570,135.528 90.392 C 136.324 90.152,136.394 90.065,135.800 90.052 C 135.360 90.043,134.190 90.470,133.200 91.000 M264.000 90.256 C 266.227 90.973,274.023 94.642,276.600 96.186 C 277.480 96.713,278.711 97.440,279.335 97.801 C 289.251 103.531,302.009 118.862,306.264 130.162 C 308.385 135.796,309.633 139.932,310.202 143.214 C 310.560 145.275,310.952 147.123,311.074 147.320 C 311.196 147.517,311.428 149.416,311.590 151.539 C 311.875 155.284,311.885 155.316,311.938 152.600 C 312.026 148.110,309.231 135.782,307.042 131.000 C 306.740 130.340,305.932 128.600,305.246 127.134 C 304.561 125.668,304.000 124.372,304.000 124.255 C 304.000 121.746,293.231 108.478,286.656 102.885 C 280.195 97.390,267.003 89.889,264.052 90.032 C 263.514 90.058,263.505 90.097,264.000 90.256 M128.600 93.010 C 126.539 94.280,127.002 94.280,129.473 93.010 C 130.533 92.466,131.130 92.022,130.800 92.023 C 130.470 92.024,129.480 92.468,128.600 93.010 M122.790 96.123 C 112.722 102.255,104.034 110.962,98.087 120.881 C 95.763 124.757,95.224 126.204,97.378 122.787 C 102.457 114.725,102.730 114.353,106.905 109.750 C 109.096 107.336,112.688 103.934,115.645 101.473 C 116.896 100.432,119.156 98.926,124.787 95.378 C 125.989 94.620,126.799 94.010,126.587 94.023 C 126.374 94.035,124.665 94.980,122.790 96.123 M88.871 120.759 C 87.646 122.938,87.789 123.365,89.043 121.272 C 89.612 120.322,90.003 119.469,89.910 119.377 C 89.818 119.285,89.350 119.906,88.871 120.759 M86.893 124.806 C 86.402 125.660,86.000 126.575,86.000 126.839 C 86.000 127.103,86.457 126.459,87.016 125.409 C 88.244 123.099,88.148 122.626,86.893 124.806 M94.893 126.806 C 94.402 127.660,94.005 128.593,94.010 128.879 C 94.016 129.166,94.472 128.521,95.024 127.447 C 96.235 125.088,96.143 124.635,94.893 126.806 M197.169 127.169 C 196.312 128.026,196.012 128.694,196.046 129.669 L 196.092 131.000 196.395 129.425 C 197.006 126.252,200.610 125.255,202.840 127.642 C 203.478 128.326,204.000 128.702,204.000 128.478 C 204.000 126.214,199.069 125.269,197.169 127.169 M84.938 129.730 C 83.618 132.902,81.933 138.785,82.131 139.533 C 82.255 140.004,82.321 139.940,82.354 139.315 C 82.379 138.828,82.746 137.478,83.168 136.315 C 83.590 135.152,84.063 133.577,84.218 132.816 C 84.373 132.055,84.854 130.753,85.286 129.924 C 85.719 129.095,86.011 128.246,85.936 128.038 C 85.861 127.831,85.412 128.592,84.938 129.730 M92.839 131.517 C 92.325 132.615,92.002 133.757,92.121 134.056 C 92.263 134.413,92.348 134.341,92.368 133.847 C 92.386 133.433,92.775 132.488,93.233 131.746 C 93.691 131.005,94.000 130.201,93.920 129.960 C 93.840 129.719,93.353 130.419,92.839 131.517 M204.094 162.476 C 204.042 180.668,204.135 195.636,204.300 195.738 C 204.572 195.906,204.569 171.993,204.293 141.200 C 204.235 134.710,204.145 144.284,204.094 162.476 M90.817 137.547 C 90.327 139.072,90.012 140.652,90.116 141.059 C 90.273 141.668,90.315 141.639,90.354 140.902 C 90.379 140.407,90.778 138.911,91.240 137.575 C 91.702 136.240,91.997 135.063,91.894 134.961 C 91.792 134.859,91.307 136.022,90.817 137.547 M318.093 140.800 C 318.093 141.570,318.175 141.885,318.276 141.500 C 318.376 141.115,318.376 140.485,318.276 140.100 C 318.175 139.715,318.093 140.030,318.093 140.800 M80.873 145.231 C 80.220 148.728,79.989 151.207,80.091 153.600 L 80.237 157.000 80.319 153.277 C 80.363 151.229,80.772 147.758,81.227 145.564 C 81.682 143.369,81.997 141.279,81.927 140.918 C 81.857 140.557,81.383 142.498,80.873 145.231 M89.069 145.083 C 88.667 146.880,88.417 148.766,88.514 149.275 C 88.667 150.072,88.699 150.043,88.746 149.062 C 88.775 148.435,89.083 146.951,89.428 145.763 C 89.773 144.575,89.998 143.201,89.928 142.709 C 89.858 142.218,89.471 143.286,89.069 145.083 M318.442 143.000 C 318.429 143.440,318.605 144.520,318.831 145.400 C 319.058 146.280,319.388 148.440,319.564 150.200 L 319.885 153.400 319.936 150.800 C 319.964 149.370,319.644 146.850,319.225 145.200 C 318.807 143.550,318.454 142.560,318.442 143.000 M88.209 201.200 C 88.241 251.732,88.250 252.229,89.085 255.400 C 89.548 257.160,89.944 258.144,89.964 257.587 C 89.984 257.030,89.696 255.590,89.324 254.387 C 88.710 252.400,88.627 247.531,88.412 201.200 L 88.176 150.200 88.209 201.200 M320.193 200.000 C 320.193 224.750,320.241 234.875,320.300 222.500 C 320.359 210.125,320.359 189.875,320.300 177.500 C 320.241 165.125,320.193 175.250,320.193 200.000 M127.169 197.169 C 125.269 199.069,126.214 204.000,128.478 204.000 C 128.702 204.000,128.326 203.478,127.642 202.840 C 125.255 200.610,126.252 197.006,129.425 196.395 L 131.000 196.092 129.669 196.046 C 128.694 196.012,128.026 196.312,127.169 197.169 M270.577 196.396 C 271.598 196.592,272.480 197.105,273.076 197.850 C 273.582 198.482,273.997 198.791,273.998 198.536 C 274.002 197.617,271.578 195.999,270.269 196.046 C 269.063 196.090,269.078 196.107,270.577 196.396 M272.534 202.693 C 271.838 203.412,271.399 204.000,271.559 204.000 C 271.931 204.000,274.199 201.646,273.971 201.497 C 273.877 201.436,273.230 201.974,272.534 202.693 M141.200 204.293 C 171.993 204.569,195.906 204.572,195.738 204.300 C 195.636 204.135,180.668 204.042,162.476 204.094 C 144.284 204.145,134.710 204.235,141.200 204.293 M204.480 204.480 C 204.113 204.847,204.023 212.678,204.097 237.780 L 204.193 270.600 204.397 237.600 L 204.600 204.600 237.600 204.397 L 270.600 204.193 237.780 204.097 C 212.678 204.023,204.847 204.113,204.480 204.480 M80.066 246.317 C 80.023 249.233,80.233 251.926,80.658 253.917 C 81.020 255.613,81.450 257.630,81.612 258.400 C 81.842 259.486,81.917 259.576,81.948 258.800 C 81.970 258.250,81.697 256.630,81.342 255.200 C 80.987 253.770,80.569 250.170,80.414 247.200 L 80.132 241.800 80.066 246.317 M311.678 247.239 C 311.635 248.691,311.243 251.571,310.806 253.639 C 310.370 255.708,310.030 257.850,310.051 258.400 C 310.072 258.950,310.317 258.230,310.595 256.800 C 310.872 255.370,311.311 253.283,311.569 252.163 C 311.828 251.042,311.976 248.882,311.898 247.363 L 311.757 244.600 311.678 247.239 M319.670 248.800 C 319.626 250.010,319.234 252.710,318.800 254.800 C 318.366 256.890,318.028 259.050,318.050 259.600 C 318.072 260.150,318.317 259.430,318.595 258.000 C 318.872 256.570,319.312 254.479,319.571 253.354 C 319.831 252.229,319.977 250.249,319.897 248.954 L 319.751 246.600 319.670 248.800 M90.203 260.248 C 90.388 261.850,91.974 265.941,91.991 264.860 C 91.996 264.564,91.734 263.754,91.409 263.060 C 91.083 262.367,90.637 261.080,90.416 260.200 L 90.014 258.600 90.203 260.248 M308.835 262.706 C 307.530 266.893,304.561 274.065,303.167 276.400 C 302.970 276.730,302.448 277.665,302.008 278.477 C 301.233 279.906,299.928 281.951,298.494 283.984 C 296.485 286.831,291.557 292.344,288.862 294.758 C 283.439 299.617,282.937 300.133,286.156 297.541 C 291.103 293.558,298.135 285.849,300.148 282.200 C 300.512 281.540,301.488 279.920,302.317 278.600 C 303.146 277.280,304.074 275.570,304.378 274.800 C 304.683 274.030,305.149 273.130,305.415 272.800 C 305.681 272.470,306.129 271.480,306.410 270.600 C 306.691 269.720,307.142 268.640,307.411 268.200 C 307.680 267.760,308.116 266.502,308.380 265.405 C 308.643 264.308,309.010 263.228,309.194 263.005 C 309.540 262.586,310.201 259.595,309.945 259.606 C 309.865 259.610,309.366 261.005,308.835 262.706 M82.034 260.675 C 82.015 261.157,82.464 263.047,83.032 264.875 C 84.145 268.461,85.980 272.927,85.992 272.080 C 85.997 271.794,85.711 271.001,85.357 270.317 C 84.742 269.128,83.763 266.096,82.606 261.800 C 82.310 260.700,82.053 260.194,82.034 260.675 M316.884 263.893 C 315.723 267.854,314.200 272.016,312.919 274.724 C 312.367 275.892,312.008 276.941,312.121 277.054 C 312.234 277.168,312.455 276.842,312.611 276.330 C 312.767 275.819,313.129 275.130,313.416 274.800 C 313.703 274.470,314.063 273.660,314.216 273.000 C 314.369 272.340,314.815 271.080,315.208 270.200 C 316.284 267.790,318.125 261.776,317.950 261.249 C 317.865 260.994,317.385 262.183,316.884 263.893 M92.426 267.200 C 92.378 267.614,94.807 273.275,95.391 274.109 C 96.266 275.357,96.142 274.767,95.062 272.537 C 94.546 271.472,93.747 269.790,93.287 268.800 C 92.826 267.810,92.439 267.090,92.426 267.200 M196.046 270.269 C 195.999 271.578,197.617 274.002,198.536 273.998 C 198.791 273.997,198.482 273.582,197.850 273.076 C 197.105 272.480,196.592 271.598,196.396 270.577 C 196.107 269.078,196.090 269.063,196.046 270.269 M202.534 272.693 C 201.838 273.412,201.399 274.000,201.559 274.000 C 201.931 274.000,204.199 271.646,203.971 271.497 C 203.877 271.436,203.230 271.974,202.534 272.693 M86.012 273.210 C 86.019 273.535,86.468 274.520,87.010 275.400 C 87.552 276.280,87.997 277.235,87.998 277.521 C 87.999 277.808,88.450 278.705,89.000 279.514 C 90.480 281.693,90.230 280.954,88.000 276.560 C 86.900 274.393,86.006 272.886,86.012 273.210 M96.000 275.395 C 96.000 279.760,112.574 298.060,120.600 302.557 C 121.260 302.926,122.610 303.759,123.600 304.406 C 124.590 305.054,125.850 305.779,126.400 306.016 C 126.950 306.254,128.390 306.910,129.600 307.474 C 130.810 308.038,132.340 308.745,133.000 309.045 C 137.830 311.243,150.117 314.026,154.600 313.938 C 157.316 313.885,157.284 313.875,153.539 313.590 C 151.416 313.428,149.517 313.196,149.320 313.074 C 149.123 312.952,147.275 312.560,145.214 312.202 C 141.932 311.633,137.796 310.385,132.162 308.264 C 126.871 306.271,119.404 301.724,114.056 297.236 C 107.734 291.932,100.977 284.017,98.317 278.800 C 97.583 277.360,96.000 275.034,96.000 275.395 M310.449 279.893 C 309.128 282.291,306.319 286.774,305.092 288.439 C 304.703 288.968,303.700 290.343,302.862 291.497 C 297.709 298.591,286.870 307.682,277.698 312.602 C 276.542 313.222,275.670 313.803,275.760 313.894 C 275.989 314.122,282.097 310.622,284.931 308.638 C 286.218 307.737,287.660 306.741,288.135 306.425 C 292.228 303.701,304.400 291.413,304.400 290.006 C 304.400 289.814,304.694 289.363,305.054 289.003 C 306.067 287.991,308.798 283.855,308.799 283.333 C 308.800 283.077,308.942 282.807,309.116 282.733 C 309.544 282.553,312.096 277.963,311.886 277.752 C 311.794 277.661,311.147 278.624,310.449 279.893 M90.000 281.328 C 90.000 281.458,90.405 282.191,90.900 282.957 C 91.395 283.723,92.250 285.101,92.800 286.019 C 96.026 291.402,105.143 301.363,110.452 305.304 C 110.973 305.690,111.940 306.429,112.600 306.944 C 113.260 307.459,114.239 308.112,114.775 308.395 C 115.311 308.677,115.941 309.077,116.175 309.284 C 116.722 309.768,119.401 311.368,121.200 312.286 C 121.970 312.679,122.838 313.225,123.129 313.500 C 123.419 313.775,123.889 314.000,124.172 314.000 C 124.456 314.000,125.699 314.540,126.936 315.200 C 128.173 315.860,129.416 316.400,129.698 316.400 C 129.981 316.400,130.839 316.733,131.606 317.141 C 132.373 317.549,133.990 318.117,135.200 318.404 C 136.410 318.691,137.979 319.168,138.687 319.463 C 139.395 319.758,140.295 319.988,140.687 319.972 C 141.079 319.957,139.960 319.494,138.200 318.943 C 131.436 316.824,122.655 313.050,119.200 310.777 C 117.283 309.515,111.208 305.393,109.964 304.510 C 108.711 303.620,99.320 294.230,97.790 292.336 C 97.344 291.785,96.639 290.813,96.222 290.177 C 95.805 289.541,95.135 288.667,94.732 288.235 C 94.329 287.803,94.000 287.316,94.000 287.153 C 94.000 286.990,93.753 286.610,93.452 286.309 C 93.150 286.008,92.585 285.140,92.195 284.380 C 91.458 282.945,90.000 280.917,90.000 281.328 M279.900 301.821 C 278.415 302.812,277.200 303.730,277.200 303.861 C 277.200 303.991,277.605 303.801,278.100 303.438 C 278.595 303.074,279.544 302.527,280.208 302.222 C 281.223 301.755,283.272 299.980,282.762 300.010 C 282.673 300.015,281.385 300.830,279.900 301.821 M275.154 304.745 C 274.629 305.155,273.750 305.625,273.200 305.791 C 272.650 305.956,271.660 306.417,271.000 306.815 C 269.720 307.586,268.699 307.991,261.800 310.461 C 259.378 311.328,258.119 311.922,259.000 311.782 C 259.880 311.643,260.782 311.378,261.005 311.194 C 261.228 311.010,262.308 310.643,263.405 310.380 C 264.502 310.116,265.760 309.680,266.200 309.411 C 266.640 309.143,267.945 308.611,269.100 308.229 C 270.255 307.848,271.200 307.399,271.200 307.232 C 271.200 307.065,271.927 306.688,272.816 306.395 C 274.440 305.859,277.324 304.000,276.532 304.000 C 276.299 304.000,275.679 304.335,275.154 304.745 M252.400 312.666 C 250.970 312.997,248.180 313.406,246.200 313.574 L 242.600 313.879 245.574 313.940 C 247.210 313.973,249.640 313.734,250.974 313.409 C 252.308 313.084,254.300 312.654,255.400 312.454 C 256.711 312.215,256.987 312.085,256.200 312.077 C 255.540 312.069,253.830 312.335,252.400 312.666 M272.715 315.000 C 271.682 315.550,270.615 316.000,270.345 316.000 C 270.074 316.000,269.121 316.344,268.226 316.763 C 267.332 317.183,265.520 317.827,264.200 318.193 C 260.570 319.201,258.512 319.960,259.352 319.981 C 260.234 320.003,265.896 318.226,268.200 317.204 C 269.080 316.814,270.339 316.368,270.998 316.215 C 271.657 316.061,272.448 315.725,272.756 315.468 C 273.064 315.211,273.785 314.790,274.358 314.532 C 274.931 314.275,275.219 314.050,274.997 314.032 C 274.775 314.015,273.748 314.450,272.715 315.000 M142.100 320.276 C 142.485 320.376,143.115 320.376,143.500 320.276 C 143.885 320.175,143.570 320.093,142.800 320.093 C 142.030 320.093,141.715 320.175,142.100 320.276 M253.600 320.646 C 252.170 320.958,249.560 321.364,247.800 321.549 L 244.600 321.885 247.174 321.943 C 248.590 321.974,250.840 321.734,252.174 321.409 C 253.508 321.084,255.500 320.654,256.600 320.454 C 257.875 320.222,258.165 320.087,257.400 320.084 C 256.740 320.081,255.030 320.334,253.600 320.646 M147.200 321.225 C 148.850 321.644,151.370 321.964,152.800 321.936 L 155.400 321.885 152.200 321.564 C 150.440 321.388,148.280 321.058,147.400 320.831 C 146.520 320.605,145.440 320.429,145.000 320.442 C 144.560 320.454,145.550 320.807,147.200 321.225 M178.500 322.300 C 190.325 322.359,209.675 322.359,221.500 322.300 C 233.325 322.241,223.650 322.193,200.000 322.193 C 176.350 322.193,166.675 322.241,178.500 322.300 " stroke="none" fill="#7c7c7c" fill-rule="evenodd"></path><path id="path4" d="M150.138 77.593 C 146.754 77.777,144.983 78.050,144.313 78.489 C 143.783 78.836,142.101 79.247,140.575 79.401 C 139.049 79.556,137.226 80.011,136.525 80.413 C 135.824 80.815,134.427 81.267,133.420 81.418 C 132.414 81.569,131.168 82.025,130.651 82.432 C 130.134 82.838,128.926 83.347,127.966 83.563 C 127.007 83.779,126.035 84.211,125.805 84.525 C 125.576 84.838,124.788 85.227,124.054 85.388 C 123.319 85.550,122.403 85.997,122.017 86.383 C 121.631 86.769,120.847 87.202,120.275 87.345 C 119.702 87.489,118.750 88.055,118.159 88.603 C 117.567 89.152,116.838 89.600,116.538 89.600 C 116.238 89.600,115.684 89.960,115.307 90.400 C 114.930 90.840,114.409 91.200,114.149 91.200 C 113.729 91.200,112.220 92.316,109.266 94.811 C 108.752 95.245,108.179 95.600,107.993 95.600 C 107.806 95.600,107.540 95.960,107.400 96.400 C 107.260 96.840,106.964 97.200,106.741 97.200 C 106.211 97.200,99.200 104.211,99.200 104.741 C 99.200 104.964,98.840 105.260,98.400 105.400 C 97.960 105.540,97.600 105.806,97.600 105.993 C 97.600 106.179,97.245 106.752,96.811 107.266 C 94.316 110.220,93.200 111.729,93.200 112.149 C 93.200 112.409,92.840 112.930,92.400 113.307 C 91.960 113.684,91.600 114.238,91.600 114.538 C 91.600 114.838,91.152 115.567,90.603 116.159 C 90.055 116.750,89.489 117.702,89.345 118.275 C 89.202 118.847,88.769 119.631,88.383 120.017 C 87.997 120.403,87.550 121.319,87.388 122.054 C 87.227 122.788,86.838 123.576,86.525 123.805 C 86.211 124.035,85.779 125.007,85.563 125.966 C 85.347 126.926,84.838 128.134,84.432 128.651 C 84.025 129.168,83.569 130.414,83.418 131.420 C 83.267 132.427,82.815 133.824,82.413 134.525 C 82.011 135.226,81.556 137.049,81.401 138.575 C 81.247 140.101,80.846 141.768,80.511 142.280 C 78.601 145.195,78.617 254.166,80.528 257.862 C 80.878 258.538,81.336 260.479,81.547 262.175 C 81.758 263.872,82.200 265.561,82.529 265.930 C 82.859 266.298,83.256 267.457,83.411 268.505 C 83.565 269.552,84.017 270.822,84.413 271.326 C 84.810 271.830,85.259 272.910,85.412 273.725 C 85.565 274.540,86.019 275.625,86.420 276.135 C 86.822 276.645,87.275 277.589,87.428 278.232 C 87.580 278.874,88.012 279.760,88.388 280.200 C 88.763 280.640,89.296 281.572,89.572 282.271 C 89.848 282.970,90.417 283.853,90.837 284.233 C 91.256 284.613,91.600 285.250,91.600 285.648 C 91.600 286.046,91.960 286.565,92.400 286.800 C 92.840 287.035,93.200 287.454,93.200 287.729 C 93.200 288.005,93.733 288.853,94.384 289.615 C 95.035 290.377,95.575 291.231,95.584 291.513 C 95.593 291.794,95.877 292.131,96.215 292.261 C 96.553 292.391,97.098 293.015,97.425 293.648 C 97.753 294.282,98.286 294.800,98.610 294.800 C 98.935 294.800,99.200 295.066,99.200 295.391 C 99.200 295.716,99.631 296.264,100.158 296.609 C 100.685 296.955,101.208 297.589,101.321 298.019 C 101.433 298.448,101.783 298.800,102.098 298.800 C 102.414 298.800,102.877 299.250,103.127 299.800 C 103.378 300.350,103.836 300.800,104.145 300.800 C 104.455 300.800,105.003 301.250,105.363 301.800 C 105.724 302.350,106.284 302.800,106.609 302.800 C 106.934 302.800,107.200 303.065,107.200 303.390 C 107.200 303.714,107.740 304.259,108.400 304.600 C 109.060 304.941,109.600 305.400,109.600 305.619 C 109.600 305.838,110.086 306.238,110.681 306.509 C 111.276 306.779,112.167 307.405,112.663 307.900 C 113.158 308.395,113.835 308.800,114.168 308.800 C 114.500 308.800,114.953 309.139,115.175 309.554 C 115.397 309.969,116.027 310.421,116.575 310.558 C 117.123 310.696,118.020 311.256,118.568 311.804 C 119.115 312.352,119.979 312.800,120.486 312.800 C 120.993 312.800,121.631 313.158,121.904 313.595 C 122.202 314.073,123.040 314.493,124.000 314.646 C 124.880 314.787,125.600 315.055,125.600 315.241 C 125.600 315.738,127.817 316.800,128.854 316.800 C 129.346 316.800,130.130 317.159,130.597 317.597 C 131.075 318.046,132.308 318.511,133.423 318.663 C 134.510 318.810,135.850 319.256,136.400 319.653 C 137.013 320.096,138.485 320.474,140.200 320.629 C 141.741 320.769,143.809 321.269,144.800 321.742 L 146.600 322.600 200.000 322.600 L 253.400 322.600 255.200 321.743 C 256.214 321.260,258.220 320.782,259.793 320.649 C 261.574 320.498,262.951 320.144,263.593 319.672 C 264.147 319.265,265.490 318.810,266.577 318.663 C 267.665 318.515,268.925 318.059,269.377 317.650 C 269.830 317.241,270.901 316.799,271.757 316.669 C 272.614 316.538,273.706 316.065,274.183 315.616 C 274.661 315.167,275.367 314.800,275.752 314.800 C 276.657 314.800,278.111 314.034,278.520 313.342 C 278.696 313.044,279.166 312.800,279.565 312.800 C 279.964 312.800,280.969 312.260,281.800 311.600 C 282.631 310.940,283.549 310.400,283.841 310.400 C 284.133 310.400,284.565 310.040,284.800 309.600 C 285.035 309.160,285.512 308.800,285.859 308.800 C 286.450 308.800,287.993 307.714,290.179 305.758 C 290.697 305.295,291.425 304.799,291.798 304.656 C 292.171 304.513,292.566 304.052,292.676 303.632 C 292.786 303.212,293.297 302.762,293.811 302.633 C 294.326 302.504,294.861 302.039,295.000 301.599 C 295.140 301.160,295.456 300.800,295.704 300.800 C 296.226 300.800,299.200 297.710,299.200 297.166 C 299.200 296.965,299.458 296.800,299.773 296.800 C 300.088 296.800,300.455 296.456,300.589 296.036 C 300.722 295.615,301.274 294.981,301.816 294.627 C 302.357 294.272,302.800 293.814,302.800 293.609 C 302.800 293.404,303.205 292.787,303.700 292.237 C 305.830 289.873,306.800 288.435,306.800 287.645 C 306.800 287.154,307.056 286.800,307.410 286.800 C 307.745 286.800,308.200 286.325,308.421 285.744 C 308.642 285.164,309.267 284.160,309.811 283.514 C 310.355 282.867,310.800 282.063,310.800 281.727 C 310.800 281.391,311.250 280.581,311.800 279.927 C 312.350 279.273,312.800 278.359,312.800 277.895 C 312.800 277.431,313.167 276.661,313.616 276.183 C 314.065 275.706,314.538 274.614,314.669 273.757 C 314.799 272.901,315.241 271.830,315.650 271.377 C 316.059 270.925,316.515 269.665,316.663 268.577 C 316.810 267.490,317.265 266.147,317.672 265.593 C 318.144 264.951,318.498 263.574,318.649 261.793 C 318.782 260.220,319.260 258.214,319.743 257.200 L 320.600 255.400 320.600 200.000 L 320.600 144.600 319.742 142.800 C 319.269 141.809,318.769 139.741,318.629 138.200 C 318.474 136.485,318.096 135.013,317.653 134.400 C 317.256 133.850,316.810 132.510,316.663 131.423 C 316.511 130.308,316.046 129.075,315.597 128.597 C 315.159 128.130,314.800 127.346,314.800 126.854 C 314.800 125.817,313.738 123.600,313.241 123.600 C 313.055 123.600,312.787 122.880,312.646 122.000 C 312.493 121.040,312.073 120.202,311.595 119.904 C 311.158 119.631,310.800 118.993,310.800 118.486 C 310.800 117.979,310.352 117.115,309.804 116.568 C 309.256 116.020,308.696 115.123,308.558 114.575 C 308.421 114.027,307.969 113.397,307.554 113.175 C 307.139 112.953,306.800 112.500,306.800 112.168 C 306.800 111.835,306.350 111.114,305.800 110.564 C 305.250 110.014,304.800 109.399,304.800 109.198 C 304.800 108.800,303.640 107.442,300.700 104.398 C 299.655 103.316,298.800 102.328,298.800 102.202 C 298.800 101.938,296.113 99.200,295.854 99.200 C 295.703 99.200,293.150 96.889,290.558 94.407 C 290.095 93.963,289.579 93.600,289.411 93.600 C 289.243 93.600,288.491 93.060,287.739 92.400 C 286.987 91.740,286.152 91.200,285.882 91.200 C 285.613 91.200,285.168 90.840,284.893 90.400 C 284.618 89.960,284.139 89.600,283.827 89.600 C 283.516 89.600,282.753 89.175,282.131 88.655 C 281.509 88.135,280.550 87.574,280.000 87.409 C 279.450 87.243,278.640 86.792,278.200 86.407 C 277.760 86.021,276.874 85.580,276.232 85.428 C 275.589 85.275,274.645 84.822,274.135 84.420 C 273.625 84.019,272.540 83.565,271.725 83.412 C 270.910 83.259,269.830 82.810,269.326 82.413 C 268.822 82.017,267.552 81.565,266.505 81.411 C 265.457 81.256,264.299 80.860,263.932 80.531 C 263.565 80.203,261.855 79.748,260.132 79.520 C 258.409 79.292,256.467 78.833,255.816 78.499 C 253.542 77.334,168.254 76.602,150.138 77.593 M251.800 78.625 C 253.340 78.961,256.010 79.493,257.734 79.806 C 261.230 80.440,265.067 81.599,268.450 83.041 C 269.688 83.568,270.902 84.000,271.150 84.000 C 271.397 84.000,272.455 84.437,273.500 84.972 C 274.545 85.507,275.850 86.135,276.400 86.369 C 276.950 86.603,277.760 87.017,278.200 87.289 C 278.640 87.561,279.900 88.310,281.000 88.954 C 288.076 93.091,293.266 97.396,300.499 105.128 C 302.926 107.722,303.672 108.686,306.090 112.354 C 306.469 112.929,306.971 113.670,307.205 114.000 C 307.934 115.026,309.538 117.735,310.286 119.200 C 310.679 119.970,311.225 120.838,311.500 121.129 C 311.775 121.419,312.000 121.889,312.000 122.172 C 312.000 122.456,312.540 123.699,313.200 124.936 C 313.860 126.173,314.401 127.413,314.402 127.692 C 314.404 127.972,314.696 128.740,315.051 129.400 C 315.406 130.060,316.028 131.770,316.432 133.200 C 316.836 134.630,317.444 136.784,317.783 137.987 C 318.123 139.190,318.400 140.516,318.400 140.933 C 318.400 141.349,318.805 143.245,319.300 145.145 L 320.200 148.600 320.200 200.000 C 320.200 246.409,320.136 251.633,319.544 253.800 C 319.183 255.120,318.672 257.550,318.408 259.200 C 317.902 262.369,316.397 267.523,315.196 270.200 C 314.801 271.080,314.359 272.373,314.213 273.072 C 314.068 273.772,313.690 274.559,313.374 274.821 C 313.058 275.083,312.800 275.487,312.800 275.718 C 312.800 276.393,309.469 282.800,309.119 282.800 C 308.943 282.800,308.800 283.025,308.799 283.300 C 308.798 283.848,306.099 287.959,305.054 289.003 C 304.694 289.363,304.400 289.814,304.400 290.006 C 304.400 291.438,292.323 303.603,288.000 306.525 C 281.921 310.635,280.154 311.739,277.400 313.154 C 275.640 314.059,273.997 314.799,273.749 314.799 C 273.501 314.800,273.083 315.058,272.821 315.374 C 272.559 315.690,271.772 316.068,271.072 316.213 C 270.373 316.359,269.080 316.801,268.200 317.196 C 265.523 318.397,260.369 319.902,257.200 320.408 C 255.550 320.672,253.120 321.183,251.800 321.544 C 249.635 322.136,244.555 322.200,200.000 322.200 L 150.600 322.200 147.145 321.300 C 145.245 320.805,143.349 320.400,142.933 320.400 C 142.516 320.400,141.190 320.123,139.987 319.783 C 138.784 319.444,136.630 318.836,135.200 318.432 C 133.770 318.028,132.060 317.406,131.400 317.051 C 130.740 316.696,129.972 316.404,129.692 316.402 C 129.413 316.401,128.173 315.860,126.936 315.200 C 125.699 314.540,124.456 314.000,124.172 314.000 C 123.889 314.000,123.419 313.775,123.129 313.500 C 122.838 313.225,121.970 312.679,121.200 312.286 C 119.401 311.368,116.722 309.768,116.175 309.284 C 115.941 309.077,115.311 308.677,114.775 308.395 C 114.239 308.112,113.260 307.459,112.600 306.944 C 111.940 306.429,110.973 305.690,110.452 305.304 C 104.499 300.885,94.787 289.981,91.645 284.188 C 91.171 283.314,90.248 281.700,89.593 280.600 C 88.939 279.500,88.306 278.330,88.187 278.000 C 88.068 277.670,87.527 276.545,86.985 275.500 C 86.443 274.455,86.000 273.397,86.000 273.150 C 86.000 272.902,85.568 271.688,85.041 270.450 C 83.599 267.067,82.440 263.230,81.806 259.734 C 81.493 258.010,80.961 255.340,80.625 253.800 C 80.095 251.371,80.013 244.278,80.007 200.303 L 80.000 149.606 81.009 144.303 C 82.176 138.177,83.652 132.764,85.033 129.550 C 85.565 128.312,86.000 127.131,86.000 126.926 C 86.000 126.486,89.882 118.748,90.980 117.000 C 98.666 104.758,106.758 96.666,119.000 88.980 C 120.748 87.882,128.486 84.000,128.926 84.000 C 129.131 84.000,130.312 83.565,131.550 83.033 C 134.674 81.691,140.094 80.193,146.000 79.040 L 151.000 78.064 200.000 78.039 C 242.535 78.017,249.369 78.095,251.800 78.625 M150.320 86.806 C 149.286 86.983,148.282 87.226,148.088 87.345 C 147.895 87.465,146.491 87.756,144.968 87.992 C 141.562 88.520,135.908 90.172,133.921 91.220 C 133.107 91.649,132.256 92.000,132.028 92.000 C 131.516 92.000,125.497 94.915,123.600 96.082 C 120.859 97.769,116.582 100.682,115.451 101.634 C 111.227 105.188,107.188 109.227,103.634 113.451 C 102.682 114.582,99.769 118.859,98.082 121.600 C 96.915 123.497,94.000 129.516,94.000 130.028 C 94.000 130.256,93.649 131.107,93.220 131.921 C 92.181 133.891,90.521 139.553,90.004 142.890 C 89.775 144.369,89.366 146.079,89.094 146.690 C 88.475 148.082,88.153 247.463,88.757 250.869 C 90.080 258.330,90.885 262.221,91.182 262.584 C 91.369 262.813,91.725 263.810,91.973 264.800 C 92.657 267.527,96.002 274.955,98.186 278.600 C 98.713 279.480,99.440 280.711,99.801 281.335 C 101.018 283.441,105.150 288.579,108.085 291.636 C 113.934 297.728,119.393 301.834,126.762 305.682 C 128.832 306.763,131.262 307.924,132.162 308.264 C 137.305 310.200,141.711 311.583,144.000 311.980 C 145.430 312.228,147.950 312.739,149.600 313.116 C 152.340 313.741,156.702 313.800,200.000 313.800 L 247.400 313.800 251.477 312.900 C 253.719 312.405,255.914 312.000,256.354 312.000 C 257.241 312.000,264.495 309.682,267.000 308.599 C 269.845 307.368,273.784 305.535,274.400 305.155 C 274.730 304.951,275.450 304.563,276.000 304.291 C 282.595 301.033,293.314 291.358,298.494 283.988 C 299.958 281.905,301.238 279.897,302.008 278.477 C 302.448 277.665,302.970 276.730,303.167 276.400 C 303.544 275.768,305.429 271.704,306.599 269.000 C 307.682 266.495,310.000 259.241,310.000 258.354 C 310.000 257.914,310.405 255.719,310.900 253.477 L 311.800 249.400 311.800 200.000 C 311.800 154.814,311.742 150.344,311.116 147.600 C 310.739 145.950,310.228 143.430,309.980 142.000 C 309.583 139.711,308.200 135.305,306.264 130.162 C 302.009 118.862,289.251 103.531,279.335 97.801 C 278.711 97.440,277.480 96.713,276.600 96.186 C 271.143 92.915,263.191 89.680,257.800 88.536 C 256.260 88.210,253.830 87.641,252.400 87.274 C 249.551 86.541,154.419 86.105,150.320 86.806 M247.976 87.448 C 248.692 87.805,251.276 88.288,253.737 88.526 C 256.192 88.762,258.290 89.074,258.400 89.218 C 258.871 89.836,260.409 90.372,262.431 90.623 C 263.624 90.771,264.795 91.134,265.033 91.430 C 265.579 92.110,267.368 92.800,268.583 92.800 C 269.095 92.800,269.614 93.060,269.736 93.378 C 269.858 93.695,270.732 94.178,271.679 94.450 C 272.625 94.723,273.720 95.270,274.111 95.668 C 274.502 96.065,275.312 96.512,275.911 96.660 C 276.510 96.808,277.235 97.260,277.523 97.665 C 277.810 98.069,278.299 98.400,278.609 98.400 C 278.919 98.400,279.787 98.940,280.539 99.600 C 281.291 100.260,282.100 100.800,282.339 100.800 C 282.876 100.800,283.310 101.192,290.053 107.761 C 293.052 110.683,295.629 113.462,295.780 113.937 C 295.931 114.412,296.312 114.800,296.627 114.800 C 296.942 114.800,297.200 115.045,297.200 115.345 C 297.200 115.645,297.740 116.569,298.400 117.400 C 299.060 118.231,299.600 119.154,299.600 119.452 C 299.600 119.749,299.960 120.218,300.400 120.493 C 300.840 120.768,301.200 121.284,301.200 121.641 C 301.200 121.998,301.740 122.969,302.400 123.800 C 303.060 124.631,303.600 125.735,303.600 126.255 C 303.600 126.775,303.957 127.557,304.394 127.994 C 304.831 128.431,305.306 129.523,305.450 130.421 C 305.593 131.319,305.955 132.298,306.254 132.597 C 306.993 133.336,307.600 135.024,307.600 136.341 C 307.600 136.941,307.957 138.130,308.392 138.985 C 308.881 139.944,309.339 142.044,309.588 144.473 C 309.810 146.636,310.264 149.057,310.596 149.852 C 311.516 152.054,311.509 247.963,310.588 250.166 C 310.252 250.971,309.795 253.552,309.572 255.901 C 309.313 258.638,308.953 260.410,308.570 260.833 C 308.242 261.196,307.791 262.624,307.568 264.007 C 307.345 265.390,306.832 266.942,306.427 267.457 C 306.022 267.972,305.564 269.070,305.410 269.897 C 305.256 270.723,304.785 271.722,304.365 272.116 C 303.944 272.509,303.600 273.260,303.600 273.785 C 303.600 274.309,303.162 275.260,302.626 275.896 C 302.090 276.533,301.531 277.537,301.383 278.127 C 301.234 278.717,300.950 279.200,300.750 279.200 C 300.550 279.200,300.075 279.863,299.694 280.674 C 299.312 281.485,298.595 282.557,298.100 283.056 C 297.605 283.555,297.200 284.199,297.200 284.486 C 297.200 284.773,296.840 285.232,296.400 285.507 C 295.960 285.782,295.600 286.203,295.600 286.443 C 295.600 287.014,285.014 297.600,284.443 297.600 C 284.203 297.600,283.782 297.960,283.507 298.400 C 283.232 298.840,282.808 299.200,282.565 299.200 C 282.322 299.200,281.690 299.578,281.161 300.039 C 280.633 300.500,279.525 301.224,278.700 301.647 C 277.875 302.070,277.200 302.593,277.200 302.808 C 277.200 303.024,276.957 303.200,276.660 303.200 C 276.363 303.200,275.328 303.737,274.360 304.393 C 273.392 305.049,272.202 305.589,271.716 305.593 C 271.229 305.597,270.509 305.944,270.116 306.365 C 269.722 306.785,268.723 307.256,267.897 307.410 C 267.070 307.564,265.972 308.022,265.457 308.427 C 264.942 308.832,263.390 309.345,262.007 309.568 C 260.624 309.791,259.196 310.242,258.833 310.570 C 258.410 310.953,256.638 311.313,253.901 311.572 C 251.552 311.795,248.971 312.252,248.166 312.588 C 245.964 313.509,154.054 313.516,151.852 312.596 C 151.057 312.264,148.636 311.810,146.473 311.588 C 144.044 311.339,141.944 310.881,140.985 310.392 C 140.130 309.957,138.941 309.600,138.341 309.600 C 137.024 309.600,135.336 308.993,134.597 308.254 C 134.298 307.955,133.319 307.593,132.421 307.450 C 131.523 307.306,130.431 306.831,129.994 306.394 C 129.557 305.957,128.775 305.600,128.255 305.600 C 127.735 305.600,126.631 305.060,125.800 304.400 C 124.969 303.740,123.998 303.200,123.641 303.200 C 123.284 303.200,122.768 302.840,122.493 302.400 C 122.218 301.960,121.749 301.600,121.452 301.600 C 121.154 301.600,120.231 301.060,119.400 300.400 C 118.569 299.740,117.688 299.200,117.441 299.200 C 117.194 299.200,116.768 298.840,116.493 298.400 C 116.218 297.960,115.819 297.600,115.606 297.600 C 115.393 297.600,112.793 295.125,109.828 292.100 C 103.289 285.429,102.800 284.889,102.800 284.339 C 102.800 284.100,102.260 283.291,101.600 282.539 C 100.940 281.787,100.400 280.919,100.400 280.609 C 100.400 280.299,100.069 279.810,99.665 279.523 C 99.260 279.235,98.808 278.510,98.660 277.911 C 98.512 277.312,98.065 276.502,97.668 276.111 C 97.270 275.720,96.723 274.625,96.450 273.679 C 96.178 272.732,95.695 271.858,95.378 271.736 C 95.060 271.614,94.800 271.078,94.800 270.544 C 94.800 269.377,93.774 266.800,93.309 266.800 C 93.126 266.800,92.773 265.504,92.524 263.920 C 92.274 262.336,91.821 260.851,91.516 260.620 C 91.157 260.347,90.811 258.635,90.529 255.737 C 90.291 253.283,89.804 250.690,89.448 249.976 C 88.505 248.086,88.450 152.024,89.391 150.139 C 90.021 148.875,90.779 144.399,90.792 141.863 C 90.797 140.962,91.119 139.921,91.570 139.348 C 92.048 138.739,92.446 137.378,92.620 135.753 C 92.787 134.192,93.111 133.056,93.422 132.936 C 94.012 132.710,94.800 130.709,94.800 129.437 C 94.800 128.972,95.151 128.373,95.580 128.105 C 96.013 127.835,96.482 126.946,96.633 126.109 C 96.783 125.279,97.240 124.280,97.648 123.889 C 98.056 123.498,98.512 122.688,98.660 122.089 C 98.808 121.490,99.260 120.765,99.665 120.477 C 100.069 120.190,100.400 119.701,100.400 119.391 C 100.400 119.081,100.940 118.213,101.600 117.461 C 102.260 116.709,102.800 115.803,102.800 115.447 C 102.800 115.091,103.086 114.800,103.435 114.800 C 103.784 114.800,104.273 114.260,104.522 113.600 C 104.772 112.940,105.212 112.400,105.500 112.400 C 105.789 112.400,106.146 112.086,106.293 111.703 C 106.641 110.796,112.796 104.641,113.703 104.293 C 114.086 104.146,114.400 103.789,114.400 103.500 C 114.400 103.212,114.940 102.772,115.600 102.522 C 116.260 102.273,116.800 101.784,116.800 101.435 C 116.800 101.086,117.091 100.800,117.447 100.800 C 117.803 100.800,118.709 100.260,119.461 99.600 C 120.213 98.940,121.081 98.400,121.391 98.400 C 121.701 98.400,122.190 98.069,122.477 97.665 C 122.765 97.260,123.490 96.808,124.089 96.660 C 124.688 96.512,125.498 96.056,125.889 95.648 C 126.280 95.240,127.279 94.783,128.109 94.633 C 128.946 94.482,129.835 94.013,130.105 93.580 C 130.373 93.151,130.972 92.800,131.437 92.800 C 132.709 92.800,134.710 92.012,134.936 91.422 C 135.056 91.111,136.192 90.787,137.753 90.620 C 139.378 90.446,140.739 90.048,141.348 89.570 C 141.921 89.119,142.962 88.797,143.863 88.792 C 146.360 88.779,150.839 88.029,151.960 87.436 C 153.671 86.530,246.159 86.541,247.976 87.448 M198.150 125.476 C 197.682 125.568,196.872 126.097,196.350 126.653 L 195.400 127.664 195.291 161.423 L 195.182 195.182 161.423 195.291 L 127.664 195.400 126.660 196.344 C 125.428 197.501,124.996 199.758,125.587 201.952 C 126.399 204.967,124.271 204.800,161.780 204.800 L 195.200 204.800 195.202 237.700 C 195.205 276.545,194.979 274.800,200.000 274.800 C 205.072 274.800,204.800 276.875,204.800 238.181 L 204.800 204.800 238.174 204.800 C 276.743 204.800,274.800 205.055,274.800 200.000 C 274.800 194.979,276.545 195.205,237.700 195.202 L 204.800 195.200 204.800 161.780 C 204.800 124.497,204.943 126.411,202.099 125.621 C 200.589 125.201,199.712 125.169,198.150 125.476 M202.894 127.167 L 204.200 128.334 204.400 162.067 L 204.600 195.800 238.268 196.000 L 271.936 196.200 272.968 197.170 C 274.534 198.641,274.442 201.427,272.774 203.025 L 271.548 204.200 238.074 204.400 L 204.600 204.600 204.400 238.074 L 204.200 271.548 203.025 272.774 C 201.427 274.442,198.641 274.534,197.170 272.968 L 196.200 271.936 196.000 238.268 L 195.800 204.600 162.067 204.400 L 128.334 204.200 127.167 202.894 C 125.537 201.069,125.538 198.800,127.169 197.169 L 128.338 196.000 161.689 196.000 C 187.095 196.000,195.154 195.886,195.520 195.520 C 195.886 195.154,196.000 187.095,196.000 161.689 L 196.000 128.338 197.169 127.169 C 198.800 125.538,201.069 125.537,202.894 127.167 " stroke="none" fill="#aeaeae" fill-rule="evenodd"></path></g></svg>